<svg width="24" height="24" viewBox="0 0 24 24" fill="none" xmlns="http://www.w3.org/2000/svg">
<g id="logout 1" clip-path="url(#clip0_1_2874)">
<g id="Group">
<path id="Vector" d="M2.25938 0.140625C1.425 0.360937 0.703125 0.942186 0.332813 1.69219C-0.0234372 2.41406 2.74391e-07 1.68281 2.74391e-07 12C2.74391e-07 19.95 0.00937527 21.3047 0.0703128 21.5859C0.3 22.6734 1.17656 23.5781 2.27813 23.8594C2.625 23.9484 2.81719 23.9531 7.40625 23.9531H12.1688L12.4078 23.8359C12.7453 23.6672 12.9047 23.4141 12.9281 23.0156C12.9469 22.6359 12.8203 22.3594 12.5203 22.1484L12.3188 22.0078L7.53281 21.9844L2.74219 21.9609L2.55469 21.8578C2.32031 21.7312 2.17969 21.5859 2.08594 21.3656C2.025 21.2109 2.01563 20.1891 2.01563 12C2.01563 3.81094 2.025 2.78906 2.08594 2.63437C2.17969 2.41406 2.32031 2.26875 2.55469 2.14219L2.74219 2.03906L7.53281 2.01562L12.3188 1.99219L12.5203 1.85156C12.8203 1.64062 12.9469 1.36406 12.9281 0.984375C12.9047 0.585938 12.7453 0.332811 12.4078 0.164062L12.1688 0.046875L7.3875 0.0515614C2.83125 0.0515614 2.58281 0.0562496 2.25938 0.140625Z" fill="#D0011A"/>
<path id="Vector_2" d="M16.6688 5.06242C16.0359 5.26399 15.75 6.02805 16.1156 6.54836C16.1859 6.6468 17.2031 7.67336 18.375 8.83586C19.5469 9.99367 20.5172 10.9593 20.5219 10.978C20.5313 11.0015 17.8828 11.0155 14.6391 11.0155H8.7375L8.53125 11.1187C8.27344 11.2546 8.08594 11.489 8.00625 11.7749C7.89375 12.2015 8.11875 12.6655 8.53125 12.8765L8.7375 12.9843H14.6391C17.8828 12.9843 20.5313 12.9984 20.5219 13.0218C20.5172 13.0405 19.5469 14.0062 18.375 15.164C17.2031 16.3265 16.1859 17.353 16.1156 17.4515C15.5484 18.2577 16.5141 19.3218 17.4047 18.8577C17.5922 18.764 23.7938 12.6374 23.8969 12.4452C24 12.2577 24 11.7421 23.8969 11.5546C23.7938 11.3577 17.5922 5.23586 17.4 5.13742C17.2125 5.03899 16.8516 5.00149 16.6688 5.06242Z" fill="#D0011A"/>
</g>
</g>
<defs>
<clipPath id="clip0_1_2874">
<rect width="24" height="24" fill="white"/>
</clipPath>
</defs>
</svg>
