<svg width="16" height="16" viewBox="0 0 16 16" fill="none" xmlns="http://www.w3.org/2000/svg">
<g id="information 1" clip-path="url(#clip0_1_1015)">
<g id="Group">
<path id="Vector" d="M7.2813 0.0312014C5.73755 0.181201 4.31255 0.749951 3.06255 1.71245C2.45317 2.1812 1.66255 3.06245 1.2063 3.7812C1.00942 4.09058 0.625049 4.87808 0.487549 5.25308C0.334424 5.67183 0.168799 6.31558 0.0875488 6.81245C-0.00932617 7.42183 -0.00932617 8.57808 0.0875488 9.18745C0.228174 10.05 0.450049 10.7437 0.828174 11.5156C1.24067 12.3562 1.6688 12.9531 2.3563 13.6437C3.04692 14.3312 3.6438 14.7593 4.48442 15.1718C5.2563 15.55 5.95005 15.7718 6.81255 15.9125C7.42192 16.0093 8.57817 16.0093 9.18755 15.9125C10.05 15.7718 10.7438 15.55 11.5157 15.1718C12.3563 14.7593 12.9532 14.3312 13.6438 13.6437C14.3313 12.9531 14.7594 12.3562 15.1719 11.5156C15.4469 10.9562 15.5844 10.5906 15.7344 10.0281C15.9313 9.27808 15.9782 8.8687 15.9782 7.99995C15.9782 7.1312 15.9313 6.72183 15.7344 5.97183C15.5844 5.40933 15.4469 5.0437 15.1719 4.48433C14.7594 3.6437 14.3313 3.04683 13.6438 2.3562C12.9532 1.6687 12.3563 1.24058 11.5157 0.828076C10.7469 0.449951 10.0344 0.224951 9.20317 0.0937014C8.7438 0.0218258 7.7188 -0.0125494 7.2813 0.0312014ZM8.8688 1.51558C11.0782 1.82495 12.9594 3.20308 13.9125 5.21245C14.3407 6.11245 14.5313 6.97495 14.5313 7.99995C14.5313 8.59683 14.4813 9.02808 14.3469 9.5812C13.7782 11.8968 11.8969 13.7781 9.5813 14.3468C9.02817 14.4812 8.59692 14.5312 8.00005 14.5312C7.40317 14.5312 6.97192 14.4812 6.4188 14.3468C4.10317 13.7781 2.22192 11.8968 1.65317 9.5812C1.5188 9.02808 1.4688 8.59683 1.4688 7.99995C1.4688 7.40308 1.5188 6.97183 1.65317 6.4187C2.22192 4.09995 4.10317 2.2187 6.42505 1.65308C6.63442 1.60308 6.93755 1.54058 7.09692 1.5187C7.5063 1.45933 8.44692 1.4562 8.8688 1.51558Z" fill="#00072D"/>
<path id="Vector_2" d="M7.63759 3.47178C7.32509 3.59053 7.07196 3.93428 7.04071 4.27803C6.99071 4.8374 7.43446 5.32178 8.00009 5.32178C8.75321 5.32178 9.21571 4.49678 8.81884 3.8624C8.57196 3.46553 8.07821 3.30303 7.63759 3.47178Z" fill="#00072D"/>
<path id="Vector_3" d="M7.7875 6.82814C7.59063 6.88751 7.44062 7.01876 7.35625 7.20001L7.28125 7.35939V9.70314C7.28125 11.9188 7.28438 12.0531 7.34062 12.1719C7.55 12.6219 8.1375 12.7375 8.49688 12.3969C8.55313 12.3406 8.62813 12.2406 8.65938 12.1719C8.71563 12.0531 8.71875 11.9188 8.71875 9.70314V7.35939L8.64375 7.20001C8.55625 7.01564 8.40938 6.88751 8.2 6.82501C8.02188 6.77189 7.9625 6.77189 7.7875 6.82814Z" fill="#00072D"/>
</g>
</g>
<defs>
<clipPath id="clip0_1_1015">
<rect width="16" height="16" fill="white"/>
</clipPath>
</defs>
</svg>
