<svg width="24" height="24" viewBox="0 0 24 24" fill="none" xmlns="http://www.w3.org/2000/svg">
<g id="padlock 1">
<g id="Group">
<path id="Vector" d="M11.3438 0.731205C8.75156 1.05933 6.74063 2.69058 5.95781 5.09527C5.7 5.87808 5.6625 6.24371 5.63906 8.13277L5.61094 9.87183L5.29688 9.92339C4.53281 10.0406 3.95156 10.5187 3.65156 11.2734L3.53906 11.5546L3.525 16.3828C3.51563 19.8421 3.525 21.3 3.56719 21.5296C3.70781 22.3921 4.34531 23.0625 5.19375 23.2453C5.37188 23.2828 7.29375 23.2968 12.0141 23.2968C19.1156 23.2968 18.8297 23.3062 19.35 23.0578C19.8797 22.8 20.325 22.1718 20.4328 21.5296C20.475 21.3 20.4844 19.8421 20.475 16.3828L20.4609 11.5546L20.3484 11.2734C20.0484 10.5187 19.4672 10.0406 18.7031 9.92339L18.3891 9.87183L18.3609 8.13277C18.3375 6.24371 18.3 5.87808 18.0422 5.09527C17.5219 3.49683 16.3969 2.17027 14.925 1.42027C14.3906 1.14371 13.7719 0.92808 13.2141 0.820269C12.8297 0.745268 11.6719 0.689018 11.3438 0.731205ZM13.0219 2.22183C14.6063 2.55933 15.9281 3.65152 16.5609 5.15621C16.8797 5.90621 16.8891 5.98589 16.9078 8.02495L16.9266 9.89058H12H7.07344L7.09219 8.02495C7.10625 6.29527 7.11563 6.14058 7.20938 5.80777C7.48125 4.84214 7.91719 4.12027 8.625 3.44995C9.41719 2.70464 10.2797 2.31089 11.5078 2.13745C11.7703 2.09995 12.6797 2.15152 13.0219 2.22183ZM18.7031 11.3859C18.7922 11.4328 18.9094 11.5453 18.9609 11.6296C19.0547 11.7843 19.0547 11.8734 19.0547 16.5937C19.0547 21.3 19.0547 21.4031 18.9609 21.5531C18.9094 21.6375 18.7828 21.7453 18.6797 21.7968C18.4875 21.8906 18.3656 21.8906 12 21.8906C5.63438 21.8906 5.5125 21.8906 5.32031 21.7968C5.21719 21.7453 5.09063 21.6375 5.03906 21.5531C4.94531 21.4031 4.94531 21.3 4.94531 16.5937C4.94531 11.8453 4.94531 11.789 5.03906 11.625C5.09531 11.5359 5.20781 11.4234 5.29688 11.3812C5.45156 11.3015 5.86875 11.2968 12 11.2968C18.2906 11.2968 18.5484 11.3015 18.7031 11.3859Z" fill="#F75C03"/>
<path id="Vector_2" d="M11.4375 13.4905C11.2687 13.5327 11.0391 13.6264 10.9219 13.6967C9.99375 14.2405 9.62812 15.4452 10.0875 16.4202C10.2891 16.842 10.6266 17.1936 11.0109 17.3764L11.2922 17.5077L11.2969 18.3749C11.2969 19.1061 11.3109 19.2702 11.3812 19.4061C11.6109 19.8702 12.3891 19.8702 12.6187 19.4061C12.6891 19.2702 12.7031 19.1061 12.7031 18.3749L12.7078 17.5077L12.9891 17.3764C13.6031 17.0858 14.0484 16.4155 14.0953 15.717C14.1703 14.6249 13.5281 13.7202 12.5109 13.4764C12.1266 13.3874 11.8172 13.392 11.4375 13.4905ZM12.4312 14.9577C12.8203 15.2342 12.7687 15.9467 12.3469 16.1483C12.1547 16.2374 11.8453 16.2374 11.6531 16.1483C11.2594 15.9608 11.1797 15.2858 11.5219 14.9858C11.7375 14.7889 12.1781 14.7795 12.4312 14.9577Z" fill="#F75C03"/>
</g>
</g>
</svg>
