<svg width="24" height="24" viewBox="0 0 24 24" fill="none" xmlns="http://www.w3.org/2000/svg">
<g id="sent 1" clip-path="url(#clip0_1_2865)">
<g id="Group">
<path id="Vector" d="M5.78906 0.0936451C5.31094 0.281145 5.2875 0.318645 3.41719 3.5624C2.45625 5.22646 1.64531 6.67958 1.6125 6.79208C1.55625 6.96552 1.54688 8.34365 1.54688 14.7374C1.54688 23.3155 1.52813 22.7811 1.85156 23.2733C1.94531 23.414 2.12344 23.5921 2.26406 23.6858C2.76094 24.0233 2.02969 23.9999 12 23.9999C21.9703 23.9999 21.2391 24.0233 21.7359 23.6858C21.8766 23.5921 22.0547 23.414 22.1484 23.2733C22.4719 22.7811 22.4531 23.3202 22.4531 14.6624V6.83896L22.3547 6.64208C22.2984 6.53427 21.4828 5.11396 20.5453 3.49208C18.7078 0.309271 18.6891 0.276459 18.1969 0.0936451C17.9531 -0.000104904 17.8266 -0.000104904 11.9859 0.00458336C6.20156 0.00458336 6.01406 0.00926971 5.78906 0.0936451ZM11.2969 3.67958V5.95302H7.49531C4.10156 5.95302 3.69375 5.94364 3.72188 5.88271C3.74531 5.82177 5.15625 3.35615 6.00938 1.88427L6.29063 1.40615H8.79375H11.2969V3.67958ZM19.0031 3.63271C19.7016 4.84208 20.2922 5.86396 20.3109 5.89208C20.3438 5.93896 19.5797 5.95302 16.5516 5.95302H12.75V3.67958V1.40615L15.2391 1.41552L17.7281 1.42958L19.0031 3.63271ZM21.0469 14.8921C21.0469 21.8343 21.0422 22.4296 20.9672 22.5093C20.8969 22.589 20.5547 22.5936 12.0094 22.5936C3.80625 22.5936 3.11719 22.589 3.0375 22.514C2.95781 22.4436 2.95313 22.1436 2.95313 14.8968V7.35927H12H21.0469V14.8921Z" fill="#2BAD3F"/>
<path id="Vector_2" d="M14.3906 12.5202C14.325 12.5437 13.5469 13.2937 12.6563 14.1843L11.0391 15.7968L10.4063 15.1593C10.0594 14.8124 9.71719 14.4937 9.64688 14.4562C9.35156 14.3015 8.94844 14.428 8.76563 14.728C8.65313 14.9108 8.64375 15.2296 8.7375 15.4124C8.82188 15.5624 10.6219 17.3577 10.7672 17.4327C10.8938 17.4983 11.1563 17.4983 11.3297 17.4327C11.4797 17.3765 15.2063 13.6827 15.3094 13.4905C15.3469 13.4202 15.375 13.2655 15.375 13.1483C15.375 12.7546 15.1406 12.5062 14.7469 12.4827C14.6156 12.478 14.4563 12.4921 14.3906 12.5202Z" fill="#2BAD3F"/>
</g>
</g>
<defs>
<clipPath id="clip0_1_2865">
<rect width="24" height="24" fill="white"/>
</clipPath>
</defs>
</svg>
