<svg width="20" height="20" viewBox="0 0 20 20" fill="none" xmlns="http://www.w3.org/2000/svg">
<g clip-path="url(#clip0_1_2187)">
<path d="M9.27739 0.0587158C8.7188 0.136841 8.26958 0.277466 7.74614 0.543091C6.00786 1.41809 4.98833 3.37122 5.18755 5.4259C5.30864 6.64856 5.71098 7.6134 6.48442 8.53528C6.92192 9.05871 7.5977 9.55871 8.22661 9.82043C10.3204 10.6954 12.6133 9.96106 13.9336 7.9884C14.9766 6.43372 15.125 4.29309 14.3086 2.64075C13.3868 0.77356 11.4141 -0.238159 9.27739 0.0587158ZM10.8907 1.58606C11.7774 1.80872 12.5782 2.44934 12.9844 3.26965C13.2696 3.84778 13.3672 4.28918 13.3633 4.98059C13.3555 6.05871 12.9688 7.03137 12.2657 7.7384C11.9375 8.07043 11.7344 8.21887 11.3438 8.41418C10.504 8.82825 9.49614 8.82825 8.6563 8.41418C8.26567 8.21887 8.06255 8.07043 7.73442 7.7384C6.25786 6.25012 6.26176 3.59778 7.74223 2.28528C8.56645 1.55872 9.73833 1.297 10.8907 1.58606Z" fill="#F75C03"/>
<path d="M9.21885 11.293C6.23448 11.418 3.87901 12.3438 2.47276 13.9453C1.39073 15.1758 0.808695 16.7305 0.707132 18.6562C0.660257 19.5352 0.73057 19.75 1.11338 19.9258C1.26573 19.9961 1.59385 20 10.0001 20C18.4064 20 18.7345 19.9961 18.8868 19.9258C19.2696 19.75 19.3399 19.5352 19.2931 18.6562C19.0665 14.3594 16.3868 11.8086 11.6212 11.3516C10.8321 11.2773 10.0431 11.2578 9.21885 11.293ZM11.2501 12.7734C14.0353 13.0234 15.8321 13.8945 16.8829 15.5039C17.3595 16.2344 17.7149 17.3008 17.797 18.2305L17.8243 18.5547H10.0001H2.17588L2.20323 18.2344C2.21885 18.0547 2.27354 17.7148 2.32432 17.4805C2.71494 15.668 3.70713 14.3867 5.32823 13.6094C6.23057 13.1758 7.21494 12.9258 8.55479 12.793C9.16416 12.7305 10.6524 12.7227 11.2501 12.7734Z" fill="#F75C03"/>
</g>
<defs>
<clipPath id="clip0_1_2187">
<rect width="20" height="20" fill="white"/>
</clipPath>
</defs>
</svg>
