<svg width="16" height="14" viewBox="0 0 16 14" fill="none" xmlns="http://www.w3.org/2000/svg">
<path id="Vector" d="M6.85877 1.21333V2.42667L6.44793 2.49667C5.52354 2.66 4.42796 3.1325 3.47504 3.77417C2.94437 4.13 1.7689 5.33167 1.42083 5.87417C0.798859 6.83667 0.416548 7.75833 0.17689 8.855C0.0627675 9.36833 0.0513552 9.63083 0.0285307 11.7075L0 14H1.14123H2.28816L2.31098 11.795C2.3281 9.78833 2.34522 9.555 2.45364 9.12917C2.89301 7.41417 3.96006 6.06083 5.47218 5.285C5.83738 5.09833 6.35093 4.9 6.70471 4.81833L6.85877 4.78333L6.85877 8.225L6.85877 11.6667H8H9.14123L9.14123 8.21917C9.14123 4.97 9.14693 4.7775 9.24394 4.80667C9.29529 4.82417 9.44936 4.865 9.5806 4.9C10.0086 5.01083 10.6419 5.31417 11.127 5.635C12.3024 6.41667 13.1698 7.67083 13.5464 9.12917C13.6548 9.555 13.6719 9.78833 13.689 11.795L13.7118 14H14.8588H16L15.9715 11.7075C15.9486 9.63083 15.9372 9.36833 15.8231 8.855C15.4636 7.18667 14.8017 5.96167 13.6205 4.75417C12.6448 3.75667 11.766 3.185 10.5449 2.77083C10.2254 2.66 9.78031 2.5375 9.55207 2.49667L9.14123 2.42667V1.21333V-5.96046e-08H8H6.85877V1.21333Z" fill="#F75C03"/>
</svg>
