<svg width="284" height="264" viewBox="0 0 284 264" fill="none" xmlns="http://www.w3.org/2000/svg">
<path d="M141.639 225.752C80.9708 225.752 31.7894 223.076 31.7894 219.775C31.7894 216.474 80.9708 213.798 141.639 213.798C202.307 213.798 251.489 216.474 251.489 219.775C251.489 223.076 202.307 225.752 141.639 225.752Z" fill="#F5F5F5"/>
<path d="M204.113 219.775H206.379" stroke="#F75C03" stroke-linecap="round" stroke-linejoin="round"/>
<path d="M210.663 219.775H268.537" stroke="#F75C03" stroke-linecap="round" stroke-linejoin="round" stroke-dasharray="7.57 7.57"/>
<path d="M270.678 219.775H272.944" stroke="#F75C03" stroke-linecap="round" stroke-linejoin="round"/>
<path d="M69.2577 93.388L134.629 94.3982L133.847 138.38L68.4752 137.37L69.2577 93.388Z" fill="#F75C03"/>
<path opacity="0.3" d="M95.1707 93.783L134.694 94.3938L133.911 138.375L94.3881 137.765L95.1707 93.783Z" fill="white"/>
<path opacity="0.3" d="M89.215 96.7466L100.597 96.9587L100.534 99.9155L89.1516 99.7034L89.215 96.7466Z" fill="white"/>
<path opacity="0.3" d="M88.8767 130.947L100.257 131.123L100.205 134.08L88.8241 133.904L88.8767 130.947Z" fill="white"/>
<path d="M81.2895 121.54C77.6004 121.54 74.6098 118.387 74.6098 114.497C74.6098 110.607 77.6004 107.453 81.2895 107.453C84.9786 107.453 87.9692 110.607 87.9692 114.497C87.9692 118.387 84.9786 121.54 81.2895 121.54Z" stroke="white" stroke-miterlimit="10"/>
<path d="M81.0117 108.525V109.708" stroke="white" stroke-linecap="round" stroke-linejoin="round"/>
<path d="M80.7227 119.36V120.542" stroke="white" stroke-linecap="round" stroke-linejoin="round"/>
<path d="M86.9209 114.265H85.6461" stroke="white" stroke-linecap="round" stroke-linejoin="round"/>
<path d="M76.689 114.27H75.4142" stroke="white" stroke-linecap="round" stroke-linejoin="round"/>
<path d="M81.0176 114.265L81.0124 110.621" stroke="white" stroke-width="0.5" stroke-linecap="round" stroke-linejoin="round"/>
<path d="M80.7681 114.502L78.0033 117.079" stroke="white" stroke-width="0.5" stroke-linecap="round" stroke-linejoin="round"/>
<path d="M80.3997 114.27C80.3997 114.384 80.4359 114.495 80.5038 114.59C80.5716 114.684 80.6681 114.758 80.7809 114.801C80.8938 114.845 81.0179 114.856 81.1377 114.834C81.2575 114.812 81.3675 114.757 81.4539 114.677C81.5403 114.596 81.5991 114.494 81.6229 114.382C81.6467 114.27 81.6345 114.155 81.5878 114.05C81.541 113.944 81.4619 113.854 81.3603 113.791C81.2588 113.728 81.1394 113.694 81.0172 113.694C80.9359 113.694 80.8553 113.708 80.78 113.737C80.7048 113.765 80.6364 113.808 80.5789 113.861C80.5214 113.915 80.476 113.979 80.4452 114.049C80.4144 114.119 80.399 114.194 80.3997 114.27Z" fill="white"/>
<path opacity="0.3" d="M81.2894 123.404C76.405 123.404 72.4454 119.416 72.4454 114.497C72.4454 109.577 76.405 105.589 81.2894 105.589C86.1737 105.589 90.1333 109.577 90.1333 114.497C90.1333 119.416 86.1737 123.404 81.2894 123.404Z" fill="white"/>
<path d="M154.738 191.743C153.752 192.446 133.962 190.46 139.078 157.74C139.078 157.74 129.69 159.963 128.682 159.815C128.682 159.815 114.909 179.494 124.937 189.241C134.965 198.987 149.911 199.584 149.911 199.584L154.738 191.743Z" fill="#F75C03"/>
<path opacity="0.3" d="M154.738 191.743C153.752 192.446 133.962 190.46 139.078 157.74C139.078 157.74 129.69 159.963 128.682 159.815C128.682 159.815 114.909 179.494 124.937 189.241C134.965 198.987 149.911 199.584 149.911 199.584L154.738 191.743Z" fill="black"/>
<path d="M132.806 162.804C132.755 162.804 138.336 162.904 140.205 160.739C142.075 158.574 143.338 154.704 139.939 152.064C136.54 149.424 116.58 138.019 107.181 137.122C97.7816 136.224 87.7196 141.874 87.7196 141.874L100.025 150.353L126.523 156.33L132.806 162.804Z" fill="#263238"/>
<path d="M150.851 186.59L150.336 191.321L144.239 190.84L145.157 185.978L150.851 186.59Z" fill="#FFC3BD"/>
<path d="M152.035 190.978L143.191 190.862L142.563 195.022C142.563 195.022 150.846 195.128 154.251 194.705C157.656 194.283 157.123 192.63 157.123 192.63C157.123 192.63 153.135 192.72 152.035 190.978Z" fill="#263238"/>
<path d="M74.8546 202.953C73.5341 190.858 81.3692 180.209 92.3547 179.167C103.34 178.126 113.316 187.086 114.637 199.18C115.957 211.275 108.122 221.924 97.1368 222.966C86.1512 224.008 76.1752 215.047 74.8546 202.953Z" fill="#263238"/>
<path d="M108.643 133.737C108.643 133.737 107.725 153.363 119.974 153.923C132.223 154.482 145.384 153.231 145.384 153.231L141.526 188.496L153.01 189.156C153.01 189.156 161.253 159.24 162.551 151.721C163.848 144.202 162.721 138.885 154.205 135.548C145.69 132.211 108.643 133.737 108.643 133.737Z" fill="#F75C03"/>
<path d="M177.19 196.004L161.933 154.704L141.537 133.721C141.537 133.721 159.338 133.785 167.893 138.368C176.448 142.951 176.766 148.458 178.335 155.01C179.904 161.563 186.199 192.577 186.199 192.577L177.19 196.004Z" fill="#F75C03"/>
<path opacity="0.7" d="M108.643 133.737C108.643 133.737 127.6 132.951 141.503 133.737C141.503 133.737 159.304 133.801 167.859 138.384C176.414 142.967 176.766 148.458 178.335 155.01C179.904 161.563 186.199 192.578 186.199 192.578L177.19 196.004L161.933 154.704C159.367 166.151 153.01 189.135 153.01 189.135L141.526 188.496L145.39 153.252C145.39 153.252 132.234 154.503 119.98 153.944C107.725 153.384 108.643 133.737 108.643 133.737Z" fill="black"/>
<path d="M139.939 101.904L146.982 102.701C146.982 102.701 148.205 114.766 149.344 117.11C149.344 117.11 171.004 119.882 179.876 119.645L184.38 122.496L184.539 127.454L180.125 127.575L178.703 124.434C178.703 124.434 175.723 124.312 175.032 122.749C175.032 122.749 152.018 127.929 143.543 122.016C143.531 122.021 138.421 115.025 139.939 101.904Z" fill="#FFC3BD"/>
<path d="M119.759 69.5957C119.759 69.5957 117.555 72.2357 118.393 74.5219C118.625 75.1739 119.032 75.7594 119.577 76.2218C120.122 76.6842 120.785 77.008 121.504 77.1619C121.504 77.1619 121.917 80.821 124.234 80.9266C126.552 81.0322 125.775 72.864 125.775 72.864L119.759 69.5957Z" fill="#263238"/>
<path d="M137.599 133.827L139.146 110.241L148.744 104.296C148.744 104.296 145.605 93.9842 139.599 92.2365C133.594 90.4888 120.495 86.4813 112.552 88.4719C104.609 90.4624 105.521 99.1955 106.886 105.674L108.416 106.012C108.416 106.012 108.654 131.541 108.665 133.737L137.599 133.827Z" fill="#263238"/>
<path d="M120.331 89.929C123.475 92.7644 129.888 94.454 131.662 93.0442C133.435 91.6345 131.197 90.3409 129.532 88.7463C128.631 87.8698 128.659 86.2278 128.869 84.9183C128.979 84.2585 129.142 83.6073 129.356 82.97C135.242 82.669 137.684 80.1029 137.928 75.578C138.172 71.053 135.973 65.7994 135.973 65.7994L131.815 62.4941C131.815 62.4941 126.149 63.2861 121.617 66.1901C118.92 67.9009 119.719 71.2695 120.835 73.7564C121.308 74.815 121.876 75.8342 122.535 76.8029C123.169 82.9964 120.331 89.929 120.331 89.929Z" fill="#FFC3BD"/>
<path d="M134.653 76.8241C134.653 76.8241 132.387 76.9244 131.396 75.615" stroke="#263238" stroke-linecap="round" stroke-linejoin="round"/>
<path d="M131.044 71.4807C131.044 71.882 131.305 72.1988 131.611 72.1935C131.917 72.1882 132.138 71.8556 132.127 71.4543C132.115 71.053 131.866 70.7362 131.56 70.7415C131.254 70.7468 131.027 71.0794 131.044 71.4807Z" fill="#263238"/>
<path d="M136.211 71.6074C136.211 72.0087 136.472 72.3255 136.778 72.3202C137.084 72.3149 137.305 71.9823 137.294 71.581C137.282 71.1798 137.033 70.8629 136.727 70.8682C136.421 70.8735 136.194 71.2114 136.211 71.6074Z" fill="#263238"/>
<path d="M134.415 74.8863L134.648 71.6497L136.308 74.7226C136.048 74.9278 135.728 75.0537 135.389 75.0829C135.051 75.1122 134.711 75.0436 134.415 74.8863Z" fill="#ED847E"/>
<path d="M131.316 68.9462C130.882 68.8349 130.419 68.871 130.01 69.0479C129.601 69.2248 129.273 69.5312 129.084 69.9124" stroke="#263238" stroke-linecap="round" stroke-linejoin="round"/>
<path d="M137.809 69.5428C137.809 69.5428 136.767 68.4868 135.543 68.7561" stroke="#263238" stroke-linecap="round" stroke-linejoin="round"/>
<path d="M120.795 73.7563C127.277 73.9728 128.081 67.1246 128.081 67.1246C131.288 68.7086 135.951 65.8046 135.951 65.8046L131.792 62.4888C131.792 62.4888 126.127 63.2913 121.594 66.1848C118.88 67.9008 119.679 71.28 120.795 73.7563Z" fill="#263238"/>
<path d="M138.036 67.8111C138.036 67.8111 141.39 65.7307 139.911 64.2312C138.432 62.7317 129.373 65.5829 122.603 69.0783C122.603 69.0783 138.109 59.4106 142.325 62.4677C145.809 64.9968 138.081 68.508 138.313 68.5027L138.036 67.8111Z" fill="#F75C03"/>
<path d="M119.118 67.1036C119.128 68.1984 119.35 69.2826 119.775 70.3033L135.004 63.4393C134.373 62.7603 133.617 62.1917 132.772 61.7602C131.871 61.2797 130.891 60.9408 129.871 60.757C128.79 60.5644 127.684 60.5288 126.591 60.6514C121.022 61.2481 119.09 65.2397 119.118 67.1036Z" fill="#F75C03"/>
<path d="M186.561 137C186.561 137 203.762 159.176 189.598 193.311" stroke="#263238" stroke-linecap="round" stroke-linejoin="round"/>
<path d="M163.859 148.521C163.859 148.521 163.859 148.563 163.859 148.648C163.859 148.732 163.859 148.78 163.859 148.875V148.928C164.064 151.064 164.443 153.182 164.993 155.264C165.774 158.342 166.811 161.272 167.667 163.627C171.293 173.633 170.873 184.415 170.873 184.415C172.074 183.021 174.273 182.028 177.021 181.331C187.026 178.77 204.011 180.143 204.011 180.143C207.343 169.25 206.153 152.201 202.838 142.655C199.524 133.109 190.335 135.263 190.335 135.263C190.335 135.263 180.635 135.527 179.417 135.406C177.188 135.154 174.931 135.196 172.715 135.532C165.225 136.81 163.423 142.328 163.859 148.521Z" fill="#F75C03"/>
<path d="M89.1816 190.08C106.178 204.378 138.988 205.878 163.401 204.294L177.077 181.363L182.618 172.075L164.817 149.714L163.876 148.537C163.876 148.537 163.876 148.579 163.876 148.664C163.876 148.748 163.876 148.796 163.876 148.891V148.944C164.12 152.93 165.695 184.921 153.112 192.768L153.01 192.836C151.307 193.862 149.332 194.425 147.305 194.462C124.217 195.085 124.863 167.006 130.733 160.993L90.6717 153.49C90.6717 153.49 82.7625 172.049 89.1816 190.08Z" fill="#F75C03"/>
<path d="M133.741 154.905C133.741 154.905 137.497 157.809 135.56 161.705C133.622 165.602 114.943 158.036 107.589 156.658C100.235 155.28 91.7251 153.933 88.0651 153.231C84.4052 152.529 84.7224 142.745 87.7138 141.879C90.7053 141.013 120.008 145.839 124.869 148.49C128.078 150.306 131.055 152.459 133.741 154.905Z" fill="#263238"/>
<path d="M124.336 76.1747C124.694 75.816 124.91 75.355 124.95 74.8669C124.99 74.3788 124.852 73.8925 124.557 73.4872C123.651 72.22 121.821 70.2083 120.064 71.7131C117.605 73.8251 121.804 77.6637 123.543 76.7344C123.834 76.5836 124.101 76.3951 124.336 76.1747Z" fill="#FFC3BD"/>
<path opacity="0.2" d="M138.035 67.8111C138.035 67.8111 141.389 65.7307 139.911 64.2312C139.254 63.5659 137.288 63.7032 134.63 64.4107C132.922 64.8394 131.248 65.3811 129.622 66.0317C127.288 66.9768 124.806 68.1859 122.602 69.0783C122.602 69.0783 138.109 59.4106 142.324 62.4677C145.809 64.9968 138.562 68.2757 138.307 68.4975L138.183 68.0698L138.035 67.8111Z" fill="black"/>
<path d="M136.444 66.9082C136.444 66.9082 139.843 67.4362 137.497 70.8471L136.444 66.9082Z" fill="#263238"/>
<path d="M133.186 64.8278C133.186 64.8278 138.313 63.1488 139.741 64.0992C141.169 65.0496 139.673 66.8606 138.041 67.7952L136.733 67.9536L135.962 65.7888L133.968 65.5618L133.186 64.8278Z" fill="#263238"/>
<path opacity="0.3" d="M126.2 62.2461L127.43 63.941L132.772 61.7762C131.871 61.2957 130.891 60.9567 129.872 60.7729L126.2 62.2461Z" fill="white"/>
<path opacity="0.1" d="M127.39 82.5054C127.743 83.3817 128.251 84.1971 128.891 84.9183C129.002 84.2585 129.164 83.6073 129.378 82.97C128.691 82.9253 128.018 82.768 127.39 82.5054Z" fill="black"/>
<path d="M178.182 128.938C178.409 132.597 180.108 135.59 182.193 136.33C182.554 136.459 182.94 136.515 183.326 136.493C185.898 136.356 187.768 132.76 187.507 128.468C187.247 124.175 184.947 120.806 182.374 120.944C181.326 120.997 180.403 121.625 179.683 122.633C178.624 124.08 178.029 126.393 178.182 128.938Z" fill="#F5F5F5"/>
<path d="M178.182 128.938C178.409 132.597 180.108 135.59 182.193 136.33C184.573 136.203 186.301 132.882 186.057 128.938C185.814 124.994 183.695 121.862 181.315 121.989C180.702 122.032 180.122 122.264 179.666 122.649C178.624 124.08 178.029 126.393 178.182 128.938Z" fill="white"/>
<path d="M86.3599 180.803C90.7394 177.936 107.685 175.122 107.685 175.122C117.979 175.122 127.016 183.755 128.262 195.218C129.282 204.542 124.863 213.006 117.741 216.866C117.741 216.866 117.147 217.098 116.149 217.462C112.376 218.851 102.801 222.214 97.1415 222.953" fill="#263238"/>
<path opacity="0.3" d="M74.8546 202.953C73.5341 190.858 81.3692 180.209 92.3547 179.167C103.34 178.126 113.316 187.086 114.637 199.18C115.957 211.275 108.122 221.924 97.1368 222.966C86.1512 224.008 76.1752 215.047 74.8546 202.953Z" fill="black"/>
<path d="M162.931 202.249C161.61 190.154 169.445 179.505 180.431 178.463C191.416 177.422 201.392 186.382 202.713 198.476C204.034 210.571 196.198 221.22 185.213 222.262C174.227 223.304 164.251 214.343 162.931 202.249Z" fill="#263238"/>
<path d="M170.602 182.498L180.732 222.135C182.209 222.358 183.712 222.399 185.202 222.256H185.315C187.258 221.792 186.391 222.293 188.34 221.691C193.298 220.166 200.499 217.467 200.499 217.467C208.13 214.009 212.442 205.598 211.394 195.988C210.125 184.346 201.162 175.65 190.612 176.363C190.612 176.363 185.604 177.223 180.448 178.475C178.182 179.003 175.916 179.631 174.052 180.286C172.818 180.902 171.661 181.644 170.602 182.498Z" fill="#263238"/>
<path opacity="0.3" d="M162.93 202.224C164.063 212.652 171.638 220.746 180.742 222.114C182.22 222.337 183.723 222.378 185.213 222.235H185.326C187.4 222.027 189.416 221.466 191.275 220.583C198.929 216.966 203.773 208.18 202.713 198.465C201.393 186.379 191.439 177.429 180.459 178.454H180.431C178.201 178.663 176.038 179.279 174.063 180.265C172.828 180.883 171.671 181.627 170.612 182.482C165.19 186.875 162.035 194.246 162.93 202.224Z" fill="black"/>
<path d="M165.689 188.338C166.021 187.844 166.401 187.379 166.822 186.949C169.355 183.728 175.145 182.524 178.935 182.809C181.841 183.074 184.631 184.006 187.054 185.523C189.819 187.192 191.796 189.747 194.538 191.5C199.739 194.848 207.631 194.753 212.855 191.305C213.15 191.11 213.43 190.896 213.694 190.666C214.226 190.15 214.581 189.497 214.713 188.792C214.913 187.911 214.841 186.995 214.504 186.152C213.371 183.184 209.592 180.576 207.207 178.987C202.371 175.807 196.683 173.941 190.776 173.596C173.933 172.513 166.749 185.919 165.689 188.338Z" fill="#F75C03"/>
<path opacity="0.3" d="M166.857 188.76C170.477 183.892 175.123 182.524 178.913 182.809C181.819 183.074 184.609 184.006 187.032 185.523C189.797 187.192 191.774 189.747 194.516 191.5C199.717 194.848 207.609 194.753 212.833 191.305C213.128 191.11 213.408 190.896 213.672 190.666C214.204 190.15 214.559 189.497 214.691 188.792C214.891 187.911 214.819 186.995 214.482 186.152C212.731 188.037 207.632 192.577 200.726 190.376C192.114 187.604 190.012 179.367 180.806 179.441C173.491 179.52 168.987 184.8 166.857 188.76Z" fill="black"/>
<g opacity="0.3">
<path opacity="0.3" d="M204.742 177.535C202.285 175.908 199.521 174.727 196.595 174.055C193.666 173.36 190.632 173.128 187.621 173.369C184.614 173.639 181.67 174.337 178.89 175.439L177.859 175.861L176.851 176.331C176.171 176.627 175.531 176.996 174.873 177.334C174.216 177.672 173.61 178.089 172.981 178.464C172.352 178.839 171.763 179.277 171.162 179.694C173.633 178.152 176.271 176.854 179.032 175.824C181.788 174.794 184.691 174.148 187.649 173.907C190.601 173.644 193.579 173.823 196.47 174.435C197.922 174.735 199.345 175.145 200.725 175.66C202.126 176.163 203.471 176.791 204.742 177.535Z" fill="black"/>
</g>
<g opacity="0.3">
<path opacity="0.3" d="M186.397 173.76C187.103 171.558 187.528 169.285 187.66 166.991C187.847 164.704 187.887 162.408 187.836 160.127C187.785 157.846 187.615 155.544 187.388 153.263L186.975 149.852C186.794 148.717 186.635 147.581 186.408 146.451L186.924 153.315L187.128 156.737C187.162 157.877 187.236 159.018 187.241 160.158C187.337 162.439 187.292 164.72 187.202 167.022C187.162 168.163 187.066 169.298 186.941 170.433C186.841 171.552 186.66 172.664 186.397 173.76Z" fill="black"/>
</g>
<path opacity="0.3" d="M153.14 192.72C164.97 185.629 165.44 167.334 165.038 155.264C164.964 153.189 164.874 151.304 164.806 149.683C164.682 148.06 164.682 146.432 164.806 144.809C166.001 136.52 172.8 135.522 172.8 135.522H172.771C165.242 136.81 163.44 142.328 163.877 148.521C163.877 148.521 163.877 148.563 163.877 148.648C163.877 148.732 163.877 148.78 163.877 148.875V148.928C164.131 152.914 165.707 184.906 153.14 192.72Z" fill="black"/>
<path opacity="0.2" d="M154.103 130.237C155.095 131.203 167.916 128.726 170.154 129.835C171.1 130.3 171.514 131.947 172.465 133.753C175.14 137.713 178.902 138.336 179.134 138.368C174.647 135.2 173.395 127.575 175.621 122.755C177.848 117.934 185.819 119.186 186.272 119.328C184.913 118.771 183.451 118.465 181.967 118.425C177.655 118.214 172.397 119.344 170.924 121.889C167.933 127.079 155.106 125.912 153.928 127.274C152.749 128.637 153.112 129.27 154.103 130.237Z" fill="black"/>
<path d="M164.142 125.627C164.922 126.968 165.233 128.502 165.032 130.015L154.171 131.155C153.616 130.556 153.205 129.853 152.968 129.093C152.73 128.333 152.671 127.535 152.794 126.752C152.794 126.752 163.553 125.743 164.142 125.627Z" fill="#263238"/>
<path d="M197.122 125.252C197.122 125.252 198.204 123.108 196.907 121.752C199.807 121.509 201.603 121.224 203.473 120.97C203.751 121.757 203.886 122.512 202.906 123.71C201.926 124.909 197.122 125.252 197.122 125.252Z" fill="#263238"/>
<path d="M203.155 138.669C205.036 141.525 206.645 146.098 206.787 153.4" stroke="#F75C03" stroke-linecap="round" stroke-linejoin="round"/>
<path d="M196.963 133.959C198.331 134.255 199.589 134.888 200.606 135.791" stroke="#F75C03" stroke-linecap="round" stroke-linejoin="round"/>
<path d="M112.472 106.434L119.622 107.247C119.622 107.247 120.869 119.492 122.025 121.873C122.025 121.873 144.013 124.693 153.027 124.444L157.599 127.338L157.757 132.375L153.276 132.496L151.831 129.328C151.831 129.328 148.806 129.207 148.109 127.618C148.109 127.618 124.744 132.898 116.138 126.878C116.144 126.857 110.948 119.756 112.472 106.434Z" fill="#FFC3BD"/>
<path opacity="0.2" d="M170.692 200.64C170.896 207.282 175.564 212.541 181.122 212.393C181.869 212.373 182.609 212.253 183.32 212.04C187.774 210.72 190.98 205.825 190.805 200.096C190.629 194.552 187.349 189.969 183.037 188.697C182.176 188.439 181.273 188.319 180.369 188.343C174.811 188.496 170.482 194.019 170.692 200.64Z" fill="#FAFAFA"/>
<path d="M175.808 200.64C175.984 206.311 179.207 210.973 183.32 212.055C187.774 210.735 190.98 205.841 190.805 200.112C190.629 194.568 187.349 189.985 183.037 188.713C178.754 189.795 175.632 194.769 175.808 200.64Z" fill="#263238"/>
<path opacity="0.2" d="M83.397 201.168C83.6066 207.81 88.275 213.074 93.8273 212.921C94.5746 212.903 95.3151 212.784 96.0255 212.568C100.484 211.248 103.691 206.358 103.51 200.624C103.34 195.086 100.059 190.497 95.7479 189.225C94.8864 188.966 93.984 188.847 93.0795 188.871C87.5215 189.024 83.193 194.536 83.397 201.168Z" fill="#FAFAFA"/>
<path d="M88.513 201.168C88.6943 206.833 91.9124 211.496 96.0256 212.578C100.484 211.258 103.691 206.369 103.51 200.635C103.34 195.096 100.059 190.508 95.7479 189.235C91.4591 190.318 88.3317 195.291 88.513 201.168Z" fill="#263238"/>
<path d="M74.638 183.67C74.5417 190.201 85.2099 194.526 103.062 197.25C107.874 198.039 112.792 198.092 117.623 197.409C125.554 196.189 129.43 193.063 129.43 193.063C129.43 193.063 127.413 170.491 107.453 167.629C93.8556 165.686 83.6236 170.797 78.4339 176.305C75.9921 178.892 74.6663 181.579 74.638 183.67Z" fill="#F75C03"/>
<path opacity="0.3" d="M74.6379 183.67C74.5416 190.201 85.2099 194.526 103.062 197.25C107.874 198.039 112.792 198.092 117.623 197.409C116.767 191.279 112.926 175.201 96.2294 173.533C88.6545 172.772 82.8077 174.198 78.4339 176.305C75.992 178.892 74.6663 181.579 74.6379 183.67Z" fill="black"/>
<g opacity="0.3">
<path opacity="0.3" d="M128.274 193.164C127.907 190.091 127.12 187.075 125.934 184.188C124.768 181.271 123.157 178.525 121.152 176.035C120.139 174.798 119.001 173.654 117.753 172.619C116.516 171.568 115.153 170.653 113.691 169.895C110.781 168.365 107.556 167.428 104.229 167.144C105.859 167.398 107.463 167.783 109.022 168.295C109.81 168.516 110.552 168.86 111.289 169.15C112.028 169.48 112.748 169.845 113.447 170.243C114.161 170.623 114.818 171.083 115.492 171.51C116.167 171.938 116.79 172.445 117.385 172.978C118.595 174.003 119.697 175.132 120.676 176.352C122.667 178.794 124.289 181.478 125.498 184.33C126.126 185.751 126.666 187.203 127.118 188.681C127.599 190.152 127.985 191.649 128.274 193.164Z" fill="black"/>
</g>
<path d="M155.061 185.708L153.882 189.436L141.525 188.475L141.361 183.264L155.061 185.708Z" fill="#F75C03"/>
<path d="M81.4932 160.285L54.3041 159.255" stroke="#F75C03" stroke-linecap="round" stroke-linejoin="round"/>
<path d="M45.3188 154.641L41.2793 154.488" stroke="#F75C03" stroke-linecap="round" stroke-linejoin="round"/>
<path d="M68.4624 155.517L48.4176 154.757" stroke="#F75C03" stroke-linecap="round" stroke-linejoin="round"/>
<path d="M54.4346 168.633L37.6362 167.999" stroke="#F75C03" stroke-linecap="round" stroke-linejoin="round"/>
<path d="M64.8193 169.029L57.4994 168.749" stroke="#F75C03" stroke-linecap="round" stroke-linejoin="round"/>
</svg>
