<svg width="268" height="268" viewBox="0 0 268 268" fill="none" xmlns="http://www.w3.org/2000/svg">
<path d="M250.253 169.483H162.408V118.649H250.253V169.483ZM162.944 168.947H249.717V119.185H162.944V168.947Z" fill="#E0E0E0"/>
<path d="M232.131 145.754H174.173V147.454H232.131V145.754Z" fill="#F0F0F0"/>
<path d="M236.124 152.09H174.173V153.945H236.124V152.09Z" fill="#F0F0F0"/>
<path d="M236.124 158.5H174.173V160.355H236.124V158.5Z" fill="#F0F0F0"/>
<path d="M194.429 136.551H174.173V140.963H194.429V136.551Z" fill="#F0F0F0"/>
<path d="M249.985 118.917H162.692V127.01H249.985V118.917Z" fill="#E0E0E0"/>
<path d="M243.269 125.799C243.156 125.692 244.282 124.336 245.777 122.771C247.273 121.206 248.586 120.021 248.693 120.123C248.801 120.225 247.68 121.586 246.185 123.157C244.689 124.727 243.376 125.906 243.269 125.799Z" fill="white"/>
<path d="M248.704 125.799C248.597 125.906 247.289 124.727 245.788 123.157C244.287 121.586 243.167 120.23 243.28 120.123C243.392 120.016 244.695 121.195 246.196 122.771C247.696 124.347 248.806 125.692 248.704 125.799Z" fill="white"/>
<path d="M142.158 18.2507H54.8652V68.5543H142.158V18.2507Z" fill="#E6E6E6"/>
<path d="M124.309 45.0935H66.3516V46.7926H124.309V45.0935Z" fill="#F0F0F0"/>
<path d="M128.302 51.4292H66.3516V53.2838H128.302V51.4292Z" fill="#F0F0F0"/>
<path d="M128.302 57.8396H66.3516V59.6942H128.302V57.8396Z" fill="#F0F0F0"/>
<path d="M86.607 35.8904H66.3516V40.3017H86.607V35.8904Z" fill="#F0F0F0"/>
<path d="M142.158 18.2507H54.8652V26.3443H142.158V18.2507Z" fill="#E0E0E0"/>
<path d="M135.147 25.0953C135.034 24.9935 136.16 23.6321 137.655 22.0669C139.151 20.5018 140.464 19.3173 140.571 19.4245C140.678 19.5317 139.558 20.8877 138.063 22.4529C136.567 24.018 135.254 25.1918 135.147 25.0953Z" fill="white"/>
<path d="M140.571 25.0954C140.464 25.2026 139.156 24.0234 137.655 22.4529C136.155 20.8824 135.034 19.5317 135.147 19.4245C135.26 19.3173 136.562 20.4965 138.063 22.067C139.564 23.6374 140.684 24.9935 140.571 25.0954Z" fill="white"/>
<path d="M109.097 111.697H21.2686V60.8574H109.097V111.697ZM21.8046 111.161H108.562V61.3934H21.8046V111.161Z" fill="#E0E0E0"/>
<path d="M90.9806 87.9683H33.0229V89.6674H90.9806V87.9683Z" fill="#F0F0F0"/>
<path d="M94.9738 94.3037H33.0229V96.1583H94.9738V94.3037Z" fill="#F0F0F0"/>
<path d="M94.9738 100.714H33.0229V102.569H94.9738V100.714Z" fill="#F0F0F0"/>
<path d="M53.2784 78.7651H33.0229V83.1764H53.2784V78.7651Z" fill="#F0F0F0"/>
<path d="M108.83 61.1255H21.5366V69.2191H108.83V61.1255Z" fill="#E0E0E0"/>
<path d="M210.46 123.344H107.388V215.622H210.46V123.344Z" fill="#E6E6E6"/>
<path d="M112.571 94.2769H31.8276V178.166H112.571V94.2769Z" fill="#F0F0F0"/>
<path d="M112.571 94.2769H31.8276V103.416H112.571V94.2769Z" fill="#E0E0E0"/>
<path d="M38.4957 98.7527C38.481 99.0841 38.3693 99.4039 38.1745 99.6724C37.9797 99.9409 37.7103 100.146 37.3998 100.263C37.0893 100.38 36.7514 100.403 36.4279 100.329C36.1045 100.256 35.8097 100.089 35.5803 99.8491C35.3509 99.6095 35.1968 99.3078 35.1373 98.9814C35.0778 98.6551 35.1155 98.3185 35.2456 98.0133C35.3757 97.7082 35.5925 97.448 35.8692 97.2649C36.1459 97.0819 36.4702 96.9842 36.802 96.9839C37.2607 96.9951 37.6963 97.1875 38.0137 97.5189C38.3311 97.8503 38.5044 98.2939 38.4957 98.7527Z" fill="white"/>
<path d="M45.3724 98.7527C45.3587 99.0857 45.2474 99.4073 45.0524 99.6775C44.8573 99.9477 44.5871 100.155 44.2754 100.272C43.9637 100.39 43.6242 100.414 43.2992 100.34C42.9742 100.266 42.678 100.099 42.4475 99.8582C42.217 99.6175 42.0624 99.3143 42.0029 98.9864C41.9434 98.6585 41.9816 98.3203 42.1128 98.014C42.244 97.7077 42.4624 97.4467 42.7409 97.2635C43.0193 97.0804 43.3454 96.9831 43.6786 96.9839C44.1374 96.9951 44.573 97.1875 44.8904 97.5189C45.2077 97.8503 45.381 98.2939 45.3724 98.7527Z" fill="white"/>
<path d="M52.2494 98.7527C52.2357 99.0857 52.1244 99.4073 51.9294 99.6775C51.7343 99.9477 51.4641 100.155 51.1524 100.272C50.8406 100.39 50.5011 100.414 50.1761 100.34C49.8511 100.266 49.5549 100.099 49.3245 99.8582C49.094 99.6175 48.9394 99.3143 48.8798 98.9864C48.8203 98.6585 48.8586 98.3203 48.9898 98.014C49.121 97.7077 49.3394 97.4467 49.6178 97.2635C49.8962 97.0804 50.2223 96.9831 50.5556 96.9839C51.0143 96.9951 51.45 97.1875 51.7673 97.5189C52.0847 97.8503 52.258 98.2939 52.2494 98.7527Z" fill="white"/>
<path d="M238.724 36.5979H135.651V139.328H238.724V36.5979Z" fill="#F0F0F0"/>
<path d="M238.724 36.5979H135.651V48.6311H238.724V36.5979Z" fill="#E0E0E0"/>
<path d="M144.431 42.494C144.412 42.9314 144.265 43.3537 144.008 43.7083C143.751 44.063 143.396 44.3344 142.986 44.4889C142.576 44.6434 142.13 44.6741 141.703 44.5773C141.276 44.4804 140.887 44.2603 140.584 43.9442C140.281 43.6281 140.078 43.23 139.999 42.7993C139.92 42.3685 139.97 41.9241 140.141 41.5213C140.313 41.1185 140.599 40.775 140.964 40.5334C141.329 40.2918 141.758 40.1628 142.195 40.1624C142.801 40.1764 143.376 40.4297 143.794 40.8666C144.213 41.3036 144.442 41.8887 144.431 42.494Z" fill="white"/>
<path d="M152.83 40.9182C153.127 41.2408 153.322 41.6438 153.392 42.0769C153.462 42.51 153.402 42.9541 153.222 43.3537C153.041 43.7534 152.746 44.091 152.375 44.3244C152.004 44.5579 151.572 44.6769 151.133 44.6667C150.695 44.6565 150.269 44.5174 149.909 44.2669C149.549 44.0163 149.27 43.6654 149.108 43.2577C148.946 42.8501 148.908 42.4038 148.998 41.9744C149.087 41.545 149.302 41.1516 149.614 40.8431C150.05 40.4274 150.634 40.2019 151.237 40.216C151.84 40.23 152.413 40.4825 152.83 40.9182Z" fill="white"/>
<path d="M162.537 42.494C162.518 42.9314 162.371 43.3537 162.114 43.7083C161.857 44.063 161.502 44.3344 161.092 44.4889C160.682 44.6434 160.236 44.6741 159.809 44.5773C159.382 44.4804 158.993 44.2603 158.69 43.9442C158.387 43.6281 158.183 43.23 158.105 42.7993C158.026 42.3685 158.076 41.9241 158.247 41.5213C158.419 41.1185 158.705 40.775 159.07 40.5334C159.435 40.2918 159.864 40.1628 160.301 40.1624C160.907 40.1764 161.482 40.4297 161.9 40.8666C162.319 41.3036 162.548 41.8887 162.537 42.494Z" fill="white"/>
<path d="M216.458 242.878C216.458 242.953 179.238 243.017 133.341 243.017C87.443 243.017 50.207 242.953 50.207 242.878C50.207 242.803 87.4215 242.738 133.341 242.738C179.26 242.738 216.458 242.808 216.458 242.878Z" fill="#263238"/>
<path d="M180.192 177.261C171.911 171.477 170.035 160.741 170.362 151.088C170.416 149.48 170.239 147.775 171.005 146.365C171.772 144.956 173.562 143.986 175.004 144.661C176.199 145.224 176.719 146.617 177.389 147.77C178.283 149.305 179.593 150.555 181.168 151.377C182.192 151.913 183.462 152.235 184.475 151.677C185.868 150.911 186.029 148.997 186.019 147.389C186.019 144.398 186.001 141.411 185.965 138.427C185.869 136.825 186.032 135.218 186.447 133.668C186.946 132.145 188.055 130.736 189.572 130.307C191.089 129.878 192.981 130.763 193.324 132.328C193.383 132.991 193.399 133.657 193.372 134.322C193.415 134.992 193.726 135.726 194.353 135.93C194.98 136.133 195.634 135.667 196.117 135.195C197.768 133.587 198.893 131.491 199.938 129.423C200.984 127.354 202.007 125.226 203.508 123.462C205.009 121.699 207.083 120.3 209.404 120.166C211.725 120.032 214.142 121.458 214.721 123.709C215.3 125.96 213.987 128.259 212.577 130.087C210.45 132.8 207.943 135.192 205.132 137.189C204.584 137.489 204.146 137.957 203.883 138.524C203.535 139.596 204.548 140.668 205.604 141.005C206.799 141.402 208.096 141.279 209.356 141.429C210.616 141.579 211.956 142.126 212.433 143.305C213.087 144.945 211.714 146.66 210.369 147.786C207.668 150.037 204.6 151.808 201.3 153.023C200.121 153.451 198.883 153.832 197.928 154.657C196.974 155.483 196.406 156.925 196.98 158.056C197.553 159.187 199.027 159.546 200.265 159.315C201.504 159.085 202.602 158.42 203.782 157.975C205.985 157.144 208.825 157.295 210.214 159.197C210.644 159.853 210.916 160.599 211.009 161.377C211.102 162.156 211.013 162.945 210.75 163.684C210.213 165.153 209.388 166.5 208.322 167.645C204.811 171.839 200.25 175.026 195.104 176.88C189.996 178.649 185.263 179.131 180.187 177.271" fill="#F75C03"/>
<path d="M212.363 121.49C212.363 121.49 212.315 121.543 212.208 121.64L211.73 122.063C211.312 122.438 210.696 122.985 209.919 123.709C207.715 125.755 205.669 127.964 203.798 130.318C202.602 131.802 201.364 133.485 200.046 135.313C198.727 137.141 197.366 139.113 196.015 141.209C194.575 143.419 193.256 145.706 192.065 148.059C191.443 149.287 190.896 150.568 190.333 151.876L188.672 155.869C186.482 160.899 184.574 166.047 182.958 171.29C181.656 175.579 180.759 179.981 180.278 184.438C179.966 187.445 179.916 190.474 180.128 193.491C180.214 194.563 180.294 195.383 180.369 195.94C180.401 196.208 180.423 196.423 180.444 196.578V196.798C180.421 196.728 180.405 196.656 180.396 196.583C180.369 196.428 180.337 196.219 180.294 195.951C180.198 195.415 180.096 194.568 179.999 193.496C179.741 190.474 179.759 187.435 180.053 184.416C180.504 179.94 181.382 175.518 182.674 171.209C184.276 165.952 186.179 160.791 188.372 155.751L190.076 151.774C190.639 150.471 191.191 149.179 191.818 147.947C193.018 145.586 194.347 143.294 195.801 141.081C197.173 138.937 198.556 136.996 199.858 135.185C201.161 133.373 202.42 131.679 203.61 130.2C205.5 127.852 207.574 125.659 209.812 123.639C210.605 122.926 211.237 122.39 211.666 122.031L212.165 121.629C212.226 121.576 212.292 121.529 212.363 121.49Z" fill="#263238"/>
<path d="M191.888 147.936C191.812 147.715 191.76 147.487 191.732 147.255C191.647 146.81 191.55 146.183 191.437 145.368C191.207 143.76 190.971 141.558 190.719 139.119C190.467 136.68 190.183 134.472 189.947 132.88C189.824 132.086 189.717 131.449 189.642 131.004C189.583 130.776 189.553 130.542 189.551 130.307C189.643 130.522 189.71 130.747 189.749 130.977C189.867 131.416 190.001 132.049 190.151 132.848C190.457 134.456 190.757 136.642 191.009 139.087C191.261 141.531 191.475 143.675 191.641 145.342C191.722 146.092 191.791 146.73 191.845 147.239C191.887 147.469 191.901 147.703 191.888 147.936Z" fill="#263238"/>
<path d="M212.513 144.087C212.252 144.144 211.987 144.177 211.72 144.184C211.184 144.232 210.423 144.296 209.479 144.404C207.593 144.607 204.998 144.983 202.152 145.519C199.306 146.055 196.749 146.66 194.911 147.127C193.994 147.362 193.255 147.577 192.767 147.722C192.506 147.814 192.237 147.879 191.963 147.914C192.211 147.79 192.469 147.688 192.735 147.609C193.239 147.432 193.968 147.186 194.879 146.923C196.706 146.387 199.263 145.749 202.12 145.202C204.54 144.74 206.982 144.4 209.436 144.184C210.385 144.104 211.152 144.071 211.688 144.061C211.963 144.042 212.24 144.051 212.513 144.087Z" fill="#263238"/>
<path d="M182.937 170.834C182.879 170.756 182.833 170.672 182.797 170.582L182.443 169.837C182.138 169.188 181.725 168.229 181.232 167.055C180.235 164.697 178.965 161.395 177.614 157.729C176.263 154.062 175.02 150.761 174.076 148.375C173.615 147.218 173.235 146.269 172.951 145.561L172.651 144.795C172.609 144.707 172.58 144.613 172.565 144.516C172.622 144.594 172.669 144.679 172.704 144.768L173.058 145.513C173.358 146.162 173.776 147.121 174.269 148.295C175.266 150.653 176.537 153.955 177.887 157.621C179.238 161.288 180.482 164.589 181.425 166.975C181.886 168.132 182.267 169.081 182.545 169.789C182.669 170.094 182.77 170.325 182.851 170.555C182.892 170.644 182.921 170.737 182.937 170.834Z" fill="#263238"/>
<path d="M210.315 162.006C210.23 162.055 210.138 162.093 210.042 162.119L209.249 162.387L206.317 163.335C203.841 164.139 200.421 165.286 196.669 166.551C192.917 167.816 189.481 168.942 186.989 169.692C185.745 170.073 184.732 170.362 184.03 170.555L183.221 170.764C183.126 170.794 183.029 170.814 182.931 170.823C183.017 170.774 183.109 170.736 183.205 170.711L183.998 170.443L186.93 169.494C189.406 168.69 192.826 167.543 196.578 166.278C200.33 165.013 203.76 163.887 206.253 163.137C207.501 162.756 208.509 162.467 209.217 162.274L210.026 162.065C210.12 162.035 210.217 162.015 210.315 162.006Z" fill="#263238"/>
<path d="M199.146 31.9885L196.385 32.9747L195.201 29.3675C193.024 22.7157 186.089 19.1835 179.716 21.4293C173.342 23.6751 169.95 30.9701 172.126 37.6219L173.31 41.2291L170.539 42.2207C169.483 42.6306 168.624 43.4319 168.143 44.4581C167.662 45.4843 167.595 46.6564 167.956 47.7308L175.637 71.2023C175.796 71.7341 176.061 72.2286 176.415 72.6561C176.769 73.0837 177.206 73.4357 177.699 73.6912C178.192 73.9467 178.731 74.1005 179.285 74.1434C179.838 74.1864 180.395 74.1176 180.922 73.9412L209.528 63.709C210.598 63.2998 211.469 62.4914 211.956 61.4538C212.442 60.4162 212.508 59.2302 212.138 58.1453L204.452 34.6739C204.288 34.1435 204.02 33.6515 203.662 33.2272C203.304 32.8029 202.864 32.4551 202.369 32.2045C201.874 31.9539 201.333 31.8056 200.779 31.7685C200.225 31.7314 199.67 31.8062 199.146 31.9885ZM177.341 35.7405C176.754 34.0109 176.86 32.1214 177.635 30.4678C178.41 28.8142 179.796 27.5248 181.5 26.8697C182.342 26.5817 183.233 26.4662 184.121 26.5301C185.008 26.594 185.874 26.836 186.666 27.2417C187.458 27.6474 188.16 28.2085 188.73 28.8914C189.3 29.5743 189.727 30.3651 189.985 31.2167L191.164 34.8239L178.52 39.3478L177.341 35.7405ZM193.421 56.5695L195.383 62.5619C195.419 62.6821 195.407 62.8115 195.35 62.9233C195.293 63.0351 195.196 63.1207 195.077 63.1623L192.328 64.1431C192.218 64.1735 192.101 64.1603 192.001 64.1063C191.901 64.0524 191.826 63.9618 191.792 63.8537L189.814 57.888C188.723 57.8286 187.677 57.4374 186.815 56.7669C185.953 56.0963 185.316 55.1784 184.99 54.136C184.524 52.7579 184.609 51.2529 185.227 49.9361C185.846 48.6193 186.949 47.5928 188.308 47.0715C188.978 46.8424 189.688 46.7507 190.395 46.8017C191.102 46.8528 191.791 47.0456 192.422 47.3687C193.053 47.6918 193.612 48.1386 194.066 48.6824C194.52 49.2263 194.861 49.856 195.067 50.5341C195.411 51.593 195.44 52.7295 195.149 53.8043C194.857 54.8792 194.259 55.8457 193.426 56.5855L193.421 56.5695Z" fill="#F75C03"/>
<path d="M196.262 32.9104C196.262 32.9854 191.143 34.9096 184.775 37.1984C178.408 39.4871 173.214 41.3256 173.187 41.272C173.16 41.2184 178.306 39.278 184.679 36.984C191.052 34.6899 196.235 32.8407 196.262 32.9104Z" fill="#263238"/>
<path d="M202.34 33.8967C202.364 33.9432 202.383 33.9917 202.399 34.0414C202.442 34.1486 202.49 34.288 202.554 34.4595C202.694 34.8508 202.887 35.3922 203.128 36.0675L205.186 42.06C206.044 44.6006 207.068 47.613 208.204 50.9576C208.74 52.6353 209.372 54.3826 209.962 56.2211C210.278 57.1685 210.414 58.1664 210.364 59.1638C210.318 59.6824 210.171 60.187 209.93 60.6485C209.672 61.1084 209.328 61.5143 208.917 61.8438C208.089 62.4482 207.17 62.9169 206.194 63.232L203.433 64.2236L198.207 66.0942L189.358 69.2459L183.382 71.347L181.774 71.883L181.345 72.0224C181.299 72.0428 181.25 72.0555 181.2 72.0599C181.2 72.0599 181.243 72.0599 181.334 71.9956L181.752 71.8294L183.36 71.2238L189.305 69.0369L198.138 65.8209L203.353 63.9342L206.113 62.9372C207.061 62.6349 207.954 62.1805 208.756 61.5918C209.139 61.2861 209.459 60.9094 209.699 60.4823C209.926 60.0555 210.063 59.5867 210.101 59.1048C210.151 58.1439 210.02 57.1822 209.715 56.2694C209.137 54.447 208.525 52.6835 207.973 51.0058C206.859 47.6558 205.829 44.6328 205.015 42.0922C204.2 39.5515 203.514 37.5094 203.042 36.0729C202.817 35.3707 202.646 34.824 202.506 34.4274L202.378 33.9986C202.361 33.9661 202.349 33.9319 202.34 33.8967Z" fill="#263238"/>
<path d="M187.246 26.5051C187.246 26.5051 186.962 26.3658 186.437 26.1514C185.688 25.8637 184.896 25.7042 184.095 25.6797C182.906 25.639 181.724 25.8623 180.632 26.3336C179.305 26.9205 178.169 27.8698 177.357 29.0726C176.539 30.2719 176.1 31.6892 176.097 33.1408C176.109 34.3306 176.289 35.5127 176.633 36.6516C176.912 37.6271 177.202 38.4043 177.395 38.9457C177.508 39.2207 177.602 39.5038 177.673 39.7926C177.521 39.5355 177.394 39.2645 177.293 38.9832C177.073 38.4472 176.757 37.6861 176.446 36.7052C176.064 35.5544 175.856 34.353 175.829 33.1408C175.815 31.6344 176.264 30.1599 177.116 28.9171C177.957 27.6705 179.138 26.6918 180.519 26.0978C181.645 25.6239 182.865 25.4148 184.084 25.4867C184.903 25.5285 185.708 25.7192 186.458 26.0495C186.659 26.1421 186.853 26.2496 187.037 26.3711C187.113 26.4046 187.184 26.4499 187.246 26.5051Z" fill="#263238"/>
<path d="M187.493 47.4788C187.578 47.427 187.668 47.3821 187.761 47.3448C188.029 47.2237 188.307 47.1251 188.592 47.05C189.043 46.9167 189.509 46.8375 189.98 46.8142C190.62 46.7798 191.26 46.8764 191.861 47.0982C193.233 47.5806 194.493 48.9796 195.115 50.8502C195.413 51.8541 195.413 52.923 195.115 53.9269C194.784 55.0164 194.192 56.0084 193.389 56.8159L193.421 56.6712C194.134 58.6276 194.911 60.7502 195.715 62.9638L195.763 63.0978L195.629 63.1461L194.402 63.5534L191.722 64.4486L191.588 64.4914L191.545 64.3574C190.811 62.1384 190.007 60.0694 189.401 58.038L189.519 58.1291C188.471 58.0421 187.472 57.6488 186.646 56.9982C185.899 56.4226 185.286 55.6909 184.85 54.8542C184.457 54.1121 184.262 53.2816 184.282 52.4422C184.307 51.5843 184.521 50.7425 184.909 49.9771C185.298 49.2116 185.85 48.5416 186.528 48.0148C186.807 47.7884 187.12 47.6075 187.455 47.4788C187.153 47.6584 186.859 47.8534 186.576 48.063C185.832 48.6928 185.262 49.5029 184.92 50.4161C184.627 51.1046 184.49 51.8496 184.518 52.5975C184.547 53.3453 184.741 54.0775 185.086 54.7416C185.514 55.5466 186.112 56.2488 186.839 56.7998C187.627 57.4183 188.579 57.7911 189.578 57.8718H189.669L189.696 57.9522C190.285 59.9462 191.095 62.0312 191.84 64.261L191.663 64.1752L194.343 63.2801L195.565 62.8674L195.479 63.0496C194.681 60.8359 193.909 58.708 193.201 56.7516V56.6712L193.266 56.6069C194.045 55.8328 194.626 54.8822 194.959 53.8358C195.244 52.8755 195.244 51.8534 194.959 50.8931C194.375 49.0922 193.169 47.7254 191.861 47.243C191.282 47.0197 190.664 46.9158 190.044 46.9374C189.581 46.948 189.121 47.011 188.672 47.125C187.873 47.3234 187.498 47.5056 187.493 47.4788Z" fill="#263238"/>
<path d="M170.925 202.244L117.384 201.997C114.292 201.98 111.333 200.737 109.157 198.54C106.981 196.343 105.767 193.372 105.779 190.28L106.348 56.0603C106.354 54.5285 106.662 53.0129 107.254 51.6002C107.847 50.1875 108.712 48.9054 109.8 47.8272C110.888 46.749 112.178 45.8958 113.596 45.3164C115.014 44.737 116.533 44.4428 118.065 44.4506L171.6 44.6971C174.692 44.7128 177.651 45.9549 179.828 48.1508C182.005 50.3467 183.221 53.3168 183.21 56.4087L182.642 190.623C182.635 192.156 182.327 193.672 181.735 195.085C181.143 196.498 180.278 197.781 179.19 198.86C178.102 199.939 176.812 200.793 175.394 201.374C173.976 201.954 172.457 202.25 170.925 202.244Z" fill="#455A64"/>
<path d="M171.52 49.312H161.143C160.804 49.3183 160.47 49.3912 160.16 49.5266C159.849 49.662 159.569 49.8572 159.334 50.1011C159.099 50.345 158.914 50.6328 158.791 50.9481C158.667 51.2633 158.607 51.5998 158.613 51.9384V53.8198C158.619 54.1581 158.559 54.4944 158.435 54.8093C158.311 55.1243 158.127 55.4117 157.892 55.6552C157.657 55.8986 157.376 56.0933 157.066 56.2282C156.755 56.363 156.421 56.4352 156.083 56.4408L135.854 56.3497C135.17 56.3315 134.521 56.0424 134.05 55.5459C133.578 55.0494 133.323 54.3862 133.341 53.7019V51.8205C133.358 51.1371 133.104 50.4746 132.633 49.9783C132.163 49.482 131.515 49.1923 130.832 49.1727H127.182L118.097 49.1298C115.936 49.1169 113.858 49.9608 112.318 51.4768C110.778 52.9927 109.901 55.0571 109.88 57.218L109.344 188.227C109.339 189.299 109.545 190.362 109.951 191.354C110.357 192.346 110.954 193.249 111.708 194.01C112.463 194.772 113.36 195.377 114.348 195.792C115.337 196.207 116.398 196.423 117.47 196.428L170.898 196.674C171.971 196.679 173.034 196.473 174.027 196.067C175.02 195.661 175.923 195.064 176.685 194.309C177.447 193.553 178.053 192.656 178.468 191.667C178.883 190.677 179.099 189.616 179.104 188.543L179.64 57.5343C179.653 55.3673 178.805 53.2839 177.282 51.7421C175.759 50.2003 173.687 49.3262 171.52 49.312Z" fill="white"/>
<path d="M164.332 179.196L124.604 179.024C124.191 179.024 123.858 178.574 123.864 178.027L123.907 167.634C123.907 167.098 124.244 166.637 124.657 166.637L164.385 166.819C164.614 166.859 164.819 166.985 164.957 167.172C165.094 167.359 165.155 167.592 165.125 167.822L165.088 178.204C165.088 178.756 164.745 179.201 164.332 179.196Z" fill="#F75C03"/>
<path d="M139.338 173.29C139.304 172.997 139.163 172.77 138.917 172.608C138.67 172.447 138.368 172.366 138.01 172.366C137.748 172.366 137.519 172.408 137.323 172.493C137.128 172.578 136.976 172.694 136.867 172.842C136.759 172.991 136.705 173.159 136.705 173.348C136.705 173.505 136.742 173.641 136.818 173.755C136.895 173.866 136.993 173.96 137.112 174.035C137.231 174.108 137.357 174.169 137.487 174.217C137.618 174.263 137.739 174.3 137.848 174.329L138.449 174.491C138.603 174.531 138.774 174.587 138.963 174.659C139.154 174.73 139.335 174.827 139.509 174.95C139.684 175.071 139.828 175.227 139.942 175.418C140.055 175.609 140.112 175.842 140.112 176.12C140.112 176.439 140.028 176.728 139.861 176.986C139.695 177.244 139.453 177.449 139.133 177.601C138.816 177.753 138.43 177.829 137.975 177.829C137.552 177.829 137.185 177.761 136.875 177.624C136.567 177.487 136.325 177.297 136.148 177.052C135.972 176.808 135.873 176.524 135.85 176.2H136.589C136.609 176.424 136.684 176.609 136.815 176.755C136.947 176.899 137.115 177.007 137.317 177.078C137.521 177.148 137.741 177.182 137.975 177.182C138.249 177.182 138.494 177.138 138.712 177.049C138.929 176.959 139.102 176.834 139.229 176.674C139.356 176.512 139.419 176.324 139.419 176.108C139.419 175.912 139.364 175.752 139.255 175.629C139.145 175.506 139 175.405 138.821 175.328C138.642 175.251 138.449 175.184 138.241 175.126L137.513 174.918C137.051 174.786 136.686 174.596 136.416 174.35C136.147 174.103 136.012 173.781 136.012 173.382C136.012 173.051 136.101 172.762 136.28 172.516C136.461 172.268 136.704 172.075 137.008 171.938C137.314 171.8 137.656 171.731 138.033 171.731C138.414 171.731 138.753 171.799 139.05 171.936C139.346 172.07 139.581 172.255 139.754 172.49C139.929 172.725 140.022 172.991 140.031 173.29H139.338ZM142.006 171.811V177.725H141.29V171.811H142.006ZM148.131 171.811V177.725H147.438L144.215 173.082H144.158V177.725H143.442V171.811H144.135L147.369 176.466H147.426V171.811H148.131ZM140.147 183.659C140.083 183.465 140 183.291 139.896 183.137C139.794 182.981 139.671 182.848 139.529 182.738C139.388 182.629 139.229 182.545 139.05 182.487C138.871 182.429 138.674 182.4 138.461 182.4C138.11 182.4 137.792 182.491 137.505 182.672C137.218 182.853 136.99 183.119 136.82 183.472C136.651 183.824 136.566 184.256 136.566 184.768C136.566 185.28 136.652 185.712 136.823 186.065C136.995 186.417 137.227 186.684 137.519 186.865C137.812 187.046 138.141 187.136 138.507 187.136C138.846 187.136 139.144 187.064 139.402 186.919C139.662 186.773 139.864 186.567 140.008 186.302C140.155 186.034 140.228 185.719 140.228 185.357L140.447 185.404H138.668V184.768H140.921V185.404C140.921 185.891 140.817 186.314 140.609 186.674C140.403 187.034 140.118 187.313 139.754 187.511C139.392 187.708 138.976 187.806 138.507 187.806C137.983 187.806 137.523 187.683 137.126 187.436C136.732 187.19 136.424 186.84 136.202 186.385C135.983 185.931 135.873 185.392 135.873 184.768C135.873 184.3 135.936 183.88 136.061 183.506C136.188 183.131 136.367 182.811 136.598 182.548C136.829 182.284 137.102 182.082 137.418 181.941C137.734 181.801 138.081 181.731 138.461 181.731C138.772 181.731 139.063 181.778 139.333 181.872C139.604 181.964 139.846 182.096 140.057 182.268C140.271 182.437 140.449 182.64 140.592 182.877C140.734 183.112 140.832 183.373 140.886 183.659H140.147ZM139.985 191.811H140.701V195.727C140.701 196.131 140.606 196.492 140.415 196.81C140.227 197.125 139.96 197.375 139.616 197.558C139.271 197.739 138.867 197.829 138.403 197.829C137.939 197.829 137.535 197.739 137.19 197.558C136.845 197.375 136.578 197.125 136.387 196.81C136.199 196.492 136.104 196.131 136.104 195.727V191.811H136.82V195.669C136.82 195.958 136.884 196.215 137.011 196.44C137.138 196.663 137.319 196.84 137.554 196.969C137.791 197.096 138.074 197.159 138.403 197.159C138.732 197.159 139.015 197.096 139.252 196.969C139.488 196.84 139.669 196.663 139.795 196.44C139.922 196.215 139.985 195.958 139.985 195.669V191.811ZM142.131 197.725V191.811H144.129C144.593 191.811 144.973 191.895 145.267 192.063C145.564 192.228 145.783 192.452 145.926 192.735C146.068 193.018 146.139 193.334 146.139 193.683C146.139 194.031 146.068 194.348 145.926 194.633C145.785 194.917 145.567 195.145 145.273 195.314C144.978 195.481 144.601 195.565 144.141 195.565H142.709V194.93H144.118C144.436 194.93 144.691 194.875 144.883 194.765C145.076 194.656 145.215 194.507 145.302 194.321C145.39 194.132 145.435 193.919 145.435 193.683C145.435 193.446 145.39 193.234 145.302 193.047C145.215 192.861 145.075 192.714 144.88 192.608C144.686 192.501 144.428 192.447 144.106 192.447H142.847V197.725H142.131Z" fill="#E8E8E3"/>
<path d="M132.528 87.8238L118.742 87.7612L118.731 90.2911L132.516 90.3537L132.528 87.8238Z" fill="#F75C03"/>
<path opacity="0.1" d="M132.528 87.8238L118.742 87.7612L118.731 90.2911L132.516 90.3537L132.528 87.8238Z" fill="black"/>
<path d="M172.94 103.357C173.048 103.346 173.155 103.321 173.256 103.282C173.405 103.224 173.534 103.125 173.628 102.997C173.723 102.869 173.78 102.717 173.792 102.558C173.792 101.706 173.792 100.463 173.792 98.8653C173.792 98.0667 173.792 97.1715 173.792 96.1853C173.792 95.9441 173.792 95.6922 173.792 95.4403C173.827 95.1958 173.774 94.9469 173.642 94.7381C173.568 94.638 173.472 94.5564 173.362 94.4996C173.251 94.4429 173.129 94.4126 173.004 94.4112H172.168H164.423L119.592 94.245C119.477 94.243 119.364 94.2688 119.261 94.3201C119.158 94.3715 119.07 94.4468 119.002 94.5398C118.873 94.7495 118.823 94.9988 118.863 95.242C118.863 95.778 118.863 96.314 118.863 96.85C118.863 97.922 118.863 98.994 118.863 100.066C118.863 100.602 118.863 101.138 118.863 101.674C118.841 101.924 118.841 102.175 118.863 102.424C118.891 102.531 118.943 102.631 119.016 102.714C119.088 102.798 119.179 102.864 119.281 102.907C119.387 102.949 119.5 102.969 119.613 102.966H122.342L134.246 103.03L154.4 103.153L167.987 103.261L171.68 103.303H172.64C172.86 103.303 172.967 103.303 172.967 103.303H172.64H171.68H167.987H154.4L134.246 103.239L122.342 103.191H119.613C119.463 103.197 119.314 103.171 119.174 103.116C119.033 103.056 118.907 102.964 118.807 102.848C118.707 102.732 118.634 102.594 118.595 102.446C118.564 102.305 118.553 102.161 118.563 102.017V101.62C118.563 101.084 118.563 100.548 118.563 100.012C118.563 98.9403 118.563 97.8683 118.563 96.7963C118.563 96.2603 118.563 95.7243 118.563 95.1883C118.553 95.0456 118.553 94.9023 118.563 94.7595C118.583 94.6019 118.644 94.4522 118.74 94.3254C118.832 94.196 118.955 94.0909 119.096 94.019C119.238 93.9472 119.395 93.9107 119.554 93.9127L164.385 94.1592L172.131 94.2128H172.967C173.114 94.2129 173.259 94.2486 173.39 94.3167C173.521 94.3848 173.633 94.4834 173.717 94.6041C173.868 94.8371 173.929 95.1173 173.889 95.392C173.889 95.644 173.889 95.8959 173.889 96.1371C173.889 97.1126 173.889 98.0077 173.889 98.8171C173.889 100.425 173.851 101.658 173.841 102.515C173.827 102.68 173.767 102.838 173.668 102.97C173.568 103.102 173.433 103.203 173.278 103.261C173.176 103.323 173.059 103.357 172.94 103.357Z" fill="#E0E0E0"/>
<path d="M148.097 96.9358H122.883V99.2996H148.097V96.9358Z" fill="#F75C03"/>
<path opacity="0.2" d="M148.097 96.9358H122.883V99.2996H148.097V96.9358Z" fill="white"/>
<path d="M132.434 110.903L118.648 110.841L118.637 113.371L132.423 113.433L132.434 110.903Z" fill="#F75C03"/>
<path opacity="0.1" d="M132.434 110.903L118.648 110.841L118.637 113.371L132.423 113.433L132.434 110.903Z" fill="black"/>
<path d="M172.592 126.437C172.7 126.424 172.807 126.404 172.913 126.378C173.063 126.331 173.201 126.251 173.317 126.146C173.434 126.04 173.526 125.911 173.589 125.767C173.673 125.551 173.706 125.318 173.685 125.086C173.685 124.829 173.685 124.55 173.685 124.24C173.685 123.618 173.685 122.91 173.685 122.096V118.692C173.711 118.445 173.656 118.197 173.53 117.984C173.397 117.766 173.19 117.604 172.945 117.529C172.678 117.481 172.407 117.467 172.136 117.486H164.423L119.747 117.32C119.507 117.32 119.275 117.408 119.095 117.567C118.914 117.726 118.798 117.944 118.767 118.183C118.767 118.692 118.767 119.255 118.767 119.791C118.767 120.863 118.767 121.935 118.767 123.007C118.767 123.543 118.767 124.079 118.767 124.615C118.747 124.865 118.757 125.117 118.799 125.365C118.866 125.582 119.003 125.771 119.19 125.901C119.388 126.027 119.621 126.087 119.855 126.073H120.6H122.149L134.01 126.132L154.094 126.255L167.634 126.362L171.316 126.405H167.634H154.094L134 126.384L122.138 126.341H119.806C119.516 126.358 119.229 126.281 118.986 126.121C118.742 125.952 118.564 125.704 118.482 125.419C118.434 125.146 118.42 124.869 118.44 124.593C118.44 124.057 118.44 123.521 118.44 122.985C118.44 121.913 118.44 120.841 118.44 119.769C118.44 119.233 118.44 118.697 118.44 118.161C118.479 117.855 118.628 117.573 118.86 117.369C119.092 117.165 119.39 117.052 119.699 117.052L164.375 117.298L172.088 117.357C172.375 117.34 172.663 117.359 172.945 117.416C173.224 117.507 173.459 117.698 173.605 117.952C173.743 118.188 173.803 118.462 173.776 118.735C173.776 118.987 173.776 119.233 173.776 119.48C173.776 120.45 173.776 121.34 173.776 122.16C173.776 122.98 173.776 123.671 173.776 124.304C173.776 124.609 173.776 124.893 173.776 125.156C173.796 125.396 173.757 125.637 173.664 125.858C173.594 126.006 173.493 126.137 173.369 126.243C173.244 126.348 173.098 126.425 172.94 126.469C172.823 126.479 172.705 126.468 172.592 126.437Z" fill="#E0E0E0"/>
<path d="M132.33 134.985L118.544 134.922L118.533 137.452L132.319 137.515L132.33 134.985Z" fill="#F75C03"/>
<path opacity="0.1" d="M132.33 134.985L118.544 134.922L118.533 137.452L132.319 137.515L132.33 134.985Z" fill="black"/>
<path d="M172.484 150.509C172.593 150.496 172.7 150.476 172.806 150.45C172.955 150.403 173.092 150.324 173.209 150.22C173.325 150.115 173.418 149.987 173.481 149.844C173.565 149.628 173.598 149.395 173.578 149.164C173.578 148.901 173.578 148.628 173.578 148.311C173.578 147.695 173.578 146.982 173.578 146.167V142.764C173.603 142.517 173.549 142.269 173.422 142.056C173.287 141.842 173.08 141.682 172.838 141.606C172.571 141.556 172.3 141.54 172.029 141.558H164.316L119.64 141.392C119.4 141.392 119.168 141.48 118.987 141.639C118.807 141.797 118.69 142.016 118.659 142.254C118.659 142.79 118.659 143.326 118.659 143.862C118.659 144.934 118.659 146.006 118.659 147.078C118.659 147.614 118.659 148.15 118.659 148.686C118.639 148.935 118.65 149.185 118.691 149.432C118.756 149.65 118.894 149.84 119.083 149.968C119.279 150.096 119.513 150.156 119.747 150.139H122.079L133.941 150.203L154.025 150.327L167.564 150.434L171.246 150.477H167.564H154.025L133.941 150.418L122.079 150.37H119.747C119.457 150.389 119.169 150.312 118.927 150.15C118.683 149.981 118.505 149.733 118.423 149.448C118.375 149.175 118.361 148.898 118.381 148.622C118.381 148.086 118.381 147.55 118.381 147.014C118.381 145.942 118.381 144.87 118.381 143.798C118.381 143.262 118.381 142.726 118.381 142.163C118.418 141.857 118.567 141.576 118.798 141.371C119.029 141.167 119.326 141.054 119.635 141.054L164.31 141.3L172.023 141.359C172.311 141.342 172.599 141.362 172.881 141.418C173.159 141.509 173.394 141.7 173.54 141.954C173.679 142.19 173.739 142.464 173.712 142.737C173.712 142.989 173.712 143.241 173.712 143.482C173.712 144.452 173.712 145.342 173.712 146.162C173.712 146.982 173.712 147.673 173.712 148.306C173.712 148.611 173.712 148.896 173.712 149.158C173.732 149.398 173.694 149.639 173.599 149.86C173.53 150.008 173.429 150.139 173.304 150.245C173.179 150.35 173.033 150.428 172.876 150.471C172.75 150.514 172.616 150.527 172.484 150.509Z" fill="#E0E0E0"/>
<path d="M147.558 120.684L122.345 120.57L122.334 122.933L147.548 123.048L147.558 120.684Z" fill="#F75C03"/>
<path opacity="0.2" d="M147.558 120.684L122.345 120.57L122.334 122.933L147.548 123.048L147.558 120.684Z" fill="white"/>
<path d="M124.625 146.135C124.609 146.351 124.531 146.557 124.399 146.728C124.267 146.899 124.088 147.028 123.883 147.099C123.679 147.169 123.458 147.178 123.249 147.124C123.039 147.07 122.85 146.956 122.705 146.795C122.56 146.635 122.466 146.436 122.433 146.222C122.4 146.008 122.431 145.79 122.521 145.593C122.611 145.397 122.757 145.231 122.941 145.117C123.124 145.003 123.337 144.945 123.553 144.951C123.852 144.967 124.132 145.101 124.333 145.323C124.533 145.544 124.638 145.836 124.625 146.135Z" fill="#F75C03"/>
<path d="M128.04 146.151C128.05 146.302 128.03 146.454 127.979 146.597C127.928 146.74 127.849 146.87 127.746 146.981C127.642 147.092 127.517 147.18 127.378 147.241C127.239 147.301 127.09 147.332 126.938 147.332C126.787 147.332 126.637 147.301 126.498 147.241C126.359 147.18 126.234 147.092 126.131 146.981C126.027 146.87 125.948 146.74 125.897 146.597C125.847 146.454 125.826 146.302 125.837 146.151C125.826 146 125.847 145.848 125.897 145.706C125.948 145.563 126.027 145.432 126.131 145.321C126.234 145.211 126.359 145.122 126.498 145.062C126.637 145.001 126.787 144.97 126.938 144.97C127.09 144.97 127.239 145.001 127.378 145.062C127.517 145.122 127.642 145.211 127.746 145.321C127.849 145.432 127.928 145.563 127.979 145.706C128.03 145.848 128.05 146 128.04 146.151Z" fill="#F75C03"/>
<path d="M131.459 146.167C131.443 146.383 131.365 146.589 131.233 146.76C131.101 146.932 130.922 147.06 130.717 147.131C130.513 147.201 130.292 147.21 130.083 147.156C129.873 147.102 129.684 146.988 129.539 146.827C129.394 146.667 129.3 146.468 129.267 146.254C129.234 146.04 129.265 145.822 129.355 145.625C129.445 145.429 129.591 145.263 129.775 145.149C129.958 145.035 130.171 144.977 130.387 144.983C130.685 145.001 130.965 145.135 131.165 145.356C131.365 145.578 131.471 145.869 131.459 146.167Z" fill="#F75C03"/>
<path d="M134.873 146.183C134.858 146.399 134.779 146.605 134.647 146.776C134.515 146.948 134.336 147.076 134.131 147.147C133.927 147.217 133.706 147.226 133.497 147.172C133.287 147.118 133.099 147.004 132.953 146.843C132.808 146.683 132.714 146.484 132.681 146.27C132.648 146.056 132.679 145.838 132.769 145.641C132.859 145.445 133.005 145.279 133.189 145.165C133.372 145.051 133.585 144.993 133.801 144.999C134.099 145.017 134.379 145.151 134.579 145.372C134.779 145.594 134.885 145.885 134.873 146.183Z" fill="#F75C03"/>
<path d="M138.288 146.194C138.273 146.41 138.195 146.617 138.064 146.789C137.932 146.961 137.753 147.09 137.549 147.162C137.344 147.233 137.124 147.242 136.914 147.189C136.704 147.135 136.515 147.022 136.369 146.861C136.224 146.701 136.128 146.502 136.095 146.288C136.062 146.074 136.092 145.855 136.182 145.659C136.273 145.462 136.419 145.296 136.602 145.181C136.786 145.067 136.999 145.009 137.216 145.015C137.513 145.033 137.791 145.166 137.992 145.387C138.192 145.607 138.298 145.897 138.288 146.194Z" fill="#F75C03"/>
<path d="M141.708 146.21C141.693 146.425 141.616 146.631 141.486 146.802C141.356 146.974 141.178 147.104 140.975 147.176C140.773 147.248 140.553 147.259 140.344 147.208C140.135 147.157 139.945 147.045 139.798 146.888C139.652 146.73 139.554 146.533 139.518 146.321C139.481 146.109 139.508 145.891 139.594 145.693C139.68 145.496 139.822 145.328 140.003 145.211C140.183 145.093 140.394 145.03 140.609 145.031C140.911 145.042 141.196 145.173 141.402 145.394C141.608 145.615 141.718 145.908 141.708 146.21Z" fill="#F75C03"/>
<path d="M145.122 146.226C145.132 146.377 145.112 146.529 145.061 146.672C145.01 146.815 144.931 146.945 144.828 147.056C144.724 147.167 144.599 147.255 144.46 147.316C144.321 147.376 144.172 147.407 144.02 147.407C143.869 147.407 143.719 147.376 143.58 147.316C143.441 147.255 143.316 147.167 143.213 147.056C143.109 146.945 143.03 146.815 142.979 146.672C142.929 146.529 142.908 146.377 142.919 146.226C142.908 146.075 142.929 145.923 142.979 145.781C143.03 145.638 143.109 145.507 143.213 145.396C143.316 145.285 143.441 145.197 143.58 145.137C143.719 145.076 143.869 145.045 144.02 145.045C144.172 145.045 144.321 145.076 144.46 145.137C144.599 145.197 144.724 145.285 144.828 145.396C144.931 145.507 145.01 145.638 145.061 145.781C145.112 145.923 145.132 146.075 145.122 146.226Z" fill="#F75C03"/>
<path d="M148.536 146.242C148.522 146.457 148.445 146.663 148.314 146.835C148.184 147.006 148.007 147.136 147.804 147.208C147.601 147.28 147.382 147.291 147.172 147.24C146.963 147.189 146.774 147.078 146.627 146.92C146.48 146.762 146.383 146.565 146.346 146.353C146.31 146.141 146.337 145.923 146.423 145.726C146.509 145.528 146.651 145.36 146.831 145.243C147.011 145.125 147.222 145.063 147.438 145.063C147.739 145.074 148.025 145.205 148.231 145.426C148.437 145.647 148.546 145.94 148.536 146.242Z" fill="#F75C03"/>
<path d="M151.95 146.258C151.936 146.474 151.858 146.681 151.726 146.853C151.595 147.025 151.416 147.155 151.212 147.226C151.007 147.297 150.786 147.306 150.577 147.253C150.367 147.2 150.177 147.086 150.032 146.926C149.886 146.766 149.791 146.566 149.758 146.352C149.724 146.138 149.755 145.92 149.845 145.723C149.935 145.526 150.081 145.36 150.265 145.246C150.449 145.131 150.662 145.073 150.878 145.079C151.176 145.097 151.454 145.231 151.654 145.451C151.854 145.671 151.961 145.961 151.95 146.258Z" fill="#F75C03"/>
<g opacity="0.2">
<path d="M124.625 146.135C124.609 146.351 124.531 146.557 124.399 146.728C124.267 146.899 124.088 147.028 123.883 147.099C123.679 147.169 123.458 147.178 123.249 147.124C123.039 147.07 122.85 146.956 122.705 146.795C122.56 146.635 122.466 146.436 122.433 146.222C122.4 146.008 122.431 145.79 122.521 145.593C122.611 145.397 122.757 145.231 122.941 145.117C123.124 145.003 123.337 144.945 123.553 144.951C123.852 144.967 124.132 145.101 124.333 145.323C124.533 145.544 124.638 145.836 124.625 146.135Z" fill="white"/>
<path d="M128.04 146.151C128.05 146.302 128.03 146.454 127.979 146.597C127.928 146.74 127.849 146.87 127.746 146.981C127.642 147.092 127.517 147.18 127.378 147.241C127.239 147.301 127.09 147.332 126.938 147.332C126.787 147.332 126.637 147.301 126.498 147.241C126.359 147.18 126.234 147.092 126.131 146.981C126.027 146.87 125.948 146.74 125.897 146.597C125.847 146.454 125.826 146.302 125.837 146.151C125.826 146 125.847 145.848 125.897 145.706C125.948 145.563 126.027 145.432 126.131 145.321C126.234 145.211 126.359 145.122 126.498 145.062C126.637 145.001 126.787 144.97 126.938 144.97C127.09 144.97 127.239 145.001 127.378 145.062C127.517 145.122 127.642 145.211 127.746 145.321C127.849 145.432 127.928 145.563 127.979 145.706C128.03 145.848 128.05 146 128.04 146.151Z" fill="white"/>
<path d="M131.459 146.167C131.443 146.383 131.365 146.589 131.233 146.76C131.101 146.932 130.922 147.06 130.717 147.131C130.513 147.201 130.292 147.21 130.083 147.156C129.873 147.102 129.684 146.988 129.539 146.827C129.394 146.667 129.3 146.468 129.267 146.254C129.234 146.04 129.265 145.822 129.355 145.625C129.445 145.429 129.591 145.263 129.775 145.149C129.958 145.035 130.171 144.977 130.387 144.983C130.685 145.001 130.965 145.135 131.165 145.356C131.365 145.578 131.471 145.869 131.459 146.167Z" fill="white"/>
<path d="M134.874 146.183C134.858 146.399 134.779 146.605 134.647 146.776C134.515 146.948 134.336 147.076 134.132 147.147C133.927 147.217 133.707 147.226 133.497 147.172C133.288 147.118 133.099 147.004 132.954 146.843C132.809 146.683 132.714 146.484 132.681 146.27C132.648 146.056 132.679 145.838 132.769 145.641C132.86 145.445 133.006 145.279 133.189 145.165C133.373 145.051 133.586 144.993 133.802 144.999C134.1 145.017 134.379 145.151 134.58 145.372C134.78 145.594 134.886 145.885 134.874 146.183Z" fill="white"/>
<path d="M138.288 146.194C138.273 146.41 138.195 146.617 138.064 146.789C137.932 146.961 137.753 147.09 137.549 147.162C137.344 147.233 137.124 147.242 136.914 147.189C136.704 147.135 136.515 147.022 136.369 146.861C136.224 146.701 136.128 146.502 136.095 146.288C136.062 146.074 136.092 145.855 136.182 145.659C136.273 145.462 136.419 145.296 136.602 145.181C136.786 145.067 136.999 145.009 137.216 145.015C137.513 145.033 137.791 145.166 137.992 145.387C138.192 145.607 138.298 145.897 138.288 146.194Z" fill="white"/>
<path d="M141.708 146.21C141.693 146.425 141.616 146.631 141.486 146.802C141.356 146.974 141.178 147.104 140.975 147.176C140.773 147.248 140.553 147.259 140.344 147.208C140.135 147.157 139.945 147.045 139.798 146.888C139.652 146.73 139.554 146.533 139.518 146.321C139.481 146.109 139.508 145.891 139.594 145.693C139.68 145.496 139.822 145.328 140.003 145.211C140.183 145.093 140.394 145.03 140.609 145.031C140.911 145.042 141.196 145.173 141.402 145.394C141.608 145.615 141.718 145.908 141.708 146.21Z" fill="white"/>
<path d="M145.122 146.226C145.133 146.377 145.112 146.529 145.061 146.672C145.011 146.815 144.931 146.946 144.828 147.056C144.725 147.167 144.6 147.255 144.461 147.316C144.322 147.376 144.172 147.407 144.021 147.407C143.869 147.407 143.719 147.376 143.58 147.316C143.441 147.255 143.316 147.167 143.213 147.056C143.11 146.946 143.03 146.815 142.98 146.672C142.929 146.529 142.909 146.377 142.919 146.226C142.909 146.075 142.929 145.924 142.98 145.781C143.03 145.638 143.11 145.507 143.213 145.396C143.316 145.286 143.441 145.197 143.58 145.137C143.719 145.076 143.869 145.045 144.021 145.045C144.172 145.045 144.322 145.076 144.461 145.137C144.6 145.197 144.725 145.286 144.828 145.396C144.931 145.507 145.011 145.638 145.061 145.781C145.112 145.924 145.133 146.075 145.122 146.226Z" fill="white"/>
<path d="M148.536 146.242C148.522 146.457 148.445 146.663 148.314 146.835C148.184 147.006 148.007 147.136 147.804 147.208C147.601 147.28 147.382 147.291 147.172 147.24C146.963 147.189 146.774 147.078 146.627 146.92C146.48 146.762 146.383 146.565 146.346 146.353C146.31 146.141 146.337 145.923 146.423 145.726C146.509 145.528 146.651 145.36 146.831 145.243C147.011 145.125 147.222 145.063 147.438 145.063C147.739 145.074 148.025 145.205 148.231 145.426C148.437 145.647 148.546 145.94 148.536 146.242Z" fill="white"/>
<path d="M151.95 146.258C151.936 146.474 151.858 146.681 151.726 146.853C151.595 147.025 151.416 147.155 151.212 147.226C151.007 147.297 150.786 147.306 150.577 147.253C150.367 147.2 150.177 147.086 150.032 146.926C149.886 146.766 149.791 146.566 149.758 146.352C149.724 146.138 149.755 145.92 149.845 145.723C149.935 145.526 150.081 145.36 150.265 145.246C150.449 145.131 150.662 145.073 150.878 145.079C151.176 145.097 151.454 145.231 151.654 145.451C151.854 145.671 151.961 145.961 151.95 146.258Z" fill="white"/>
</g>
<path d="M147.099 68.8816C147.472 68.7176 147.788 68.4477 148.008 68.1056C148.228 67.7635 148.343 67.3641 148.338 66.9573C148.351 66.6929 148.311 66.4283 148.22 66.1799C148.128 65.9314 147.987 65.7042 147.805 65.5121C147.622 65.32 147.403 65.167 147.159 65.0625C146.916 64.958 146.654 64.9041 146.389 64.9041C146.124 64.9041 145.862 64.958 145.619 65.0625C145.376 65.167 145.156 65.32 144.974 65.5121C144.792 65.7042 144.65 65.9314 144.559 66.1799C144.467 66.4283 144.427 66.6929 144.441 66.9573C144.433 67.3682 144.546 67.7723 144.768 68.1186C144.989 68.4649 145.308 68.7378 145.684 68.903C142.683 69.3532 142.817 72.6121 142.817 72.6121L149.913 72.6443C149.913 72.6443 150.08 69.3264 147.099 68.8816Z" fill="#F75C03"/>
<path opacity="0.1" d="M147.099 68.8816C147.472 68.7176 147.788 68.4477 148.008 68.1056C148.228 67.7635 148.343 67.3641 148.338 66.9573C148.351 66.6929 148.311 66.4283 148.22 66.1799C148.128 65.9314 147.987 65.7042 147.805 65.5121C147.622 65.32 147.403 65.167 147.159 65.0625C146.916 64.958 146.654 64.9041 146.389 64.9041C146.124 64.9041 145.862 64.958 145.619 65.0625C145.376 65.167 145.156 65.32 144.974 65.5121C144.792 65.7042 144.65 65.9314 144.559 66.1799C144.467 66.4283 144.427 66.6929 144.441 66.9573C144.433 67.3682 144.546 67.7723 144.768 68.1186C144.989 68.4649 145.308 68.7378 145.684 68.903C142.683 69.3532 142.817 72.6121 142.817 72.6121L149.913 72.6443C149.913 72.6443 150.08 69.3264 147.099 68.8816Z" fill="black"/>
<path d="M158.631 74.7461L133.338 74.6313L133.324 77.6544L158.618 77.7691L158.631 74.7461Z" fill="#F75C03"/>
<path opacity="0.2" d="M158.631 74.7461L133.338 74.6313L133.324 77.6544L158.618 77.7691L158.631 74.7461Z" fill="white"/>
<path d="M65.6441 90.4124H65.3922L64.6632 90.466C64.2688 90.4897 63.8765 90.5416 63.4894 90.6214C63.2387 90.6566 62.99 90.7049 62.7444 90.7662L61.9136 90.9966C60.4995 91.4305 59.1653 92.0912 57.9632 92.953C56.375 94.1059 55.0488 95.5818 54.0719 97.2839C53.4977 98.2651 53.0407 99.3103 52.7104 100.398C52.3634 101.58 52.1636 102.801 52.1155 104.032C52.0835 104.679 52.0943 105.327 52.1476 105.972C52.1476 106.299 52.2388 106.626 52.2816 106.959C52.3177 107.294 52.3804 107.625 52.4692 107.95C52.9512 110.101 53.9292 112.11 55.3251 113.815C56.721 115.521 58.4963 116.877 60.5092 117.775C61.9661 118.404 63.5277 118.755 65.1135 118.81C66.7514 118.9 68.3909 118.665 69.9375 118.118L70.4092 117.941H70.4735L70.5271 117.974L77.2861 121.404L77.0877 121.575C76.3641 119.335 75.6673 117.164 74.992 115.079V114.999L75.0509 114.94C76.6906 113.288 77.9077 111.266 78.5992 109.044C79.2256 107.012 79.4084 104.87 79.1352 102.762C78.8923 100.888 78.2899 99.0792 77.3611 97.434C76.5605 96.0207 75.5276 94.7523 74.3059 93.682C73.2979 92.8348 72.1823 92.1247 70.9881 91.5702C70.0844 91.1804 69.1433 90.8841 68.1794 90.6858L67.1074 90.5089L66.3302 90.4499L65.8585 90.4178H65.6977C65.7512 90.4118 65.8051 90.4118 65.8585 90.4178H66.3356L67.1128 90.4499L68.1848 90.6054C69.1607 90.7892 70.1146 91.0748 71.0309 91.4576C72.2457 92.0055 73.3814 92.714 74.4077 93.5641C75.6519 94.6297 76.7067 95.8983 77.5272 97.3161C78.4824 98.9789 79.1033 100.813 79.355 102.714C79.6508 104.854 79.4808 107.034 78.8565 109.103C78.1605 111.371 76.9245 113.436 75.2546 115.122L75.2868 114.983C75.9621 117.068 76.6643 119.238 77.3932 121.474L77.4951 121.801L77.1896 121.645L70.4306 118.22H70.5485L70.0661 118.397C68.4897 118.952 66.8199 119.192 65.151 119.104C63.531 119.043 61.9368 118.679 60.4503 118.032C57.6147 116.818 55.2555 114.707 53.7342 112.024C53.0341 110.785 52.5229 109.448 52.2173 108.058C52.1337 107.724 52.071 107.386 52.0297 107.044C51.9868 106.707 51.9172 106.374 51.9011 106.042C51.756 104.135 51.9576 102.217 52.496 100.382C52.8346 99.2792 53.3042 98.2211 53.895 97.2303C54.8952 95.5128 56.2491 94.0274 57.8668 92.8726C59.0887 92.0086 60.4452 91.353 61.8814 90.9323L62.7229 90.7179C62.9706 90.6605 63.2211 90.6157 63.4733 90.5839C63.8644 90.5115 64.2604 90.4685 64.6579 90.4553L65.3922 90.4285C65.4757 90.4172 65.5599 90.4119 65.6441 90.4124Z" fill="#F75C03"/>
<path d="M68.6994 102.912H67.7078L65.5638 99.8997V97.9219C65.5638 97.9219 64.0308 97.8254 64.213 100.414C64.3953 103.003 64.213 102.344 64.213 102.344C64.213 102.344 60.9595 102.344 60.6915 102.639C60.4235 102.933 60.4074 106.074 60.3699 107.827C60.3494 108.25 60.4706 108.667 60.7144 109.013C60.9581 109.358 61.3104 109.613 61.7153 109.735C61.8288 109.767 61.9459 109.783 62.0637 109.784C62.8784 109.784 67.0217 109.124 67.0217 109.124H68.7315L68.6994 102.912Z" fill="#F75C03"/>
<path d="M71.5348 102.381L70.9237 109.156H69.23V102.521L71.5348 102.381Z" fill="#F75C03"/>
<path d="M91.7363 240.31V235.727L83.5194 235.668L83.4497 242.599L83.9589 242.636C86.2262 242.781 95.4936 242.996 97.0159 242.524C98.7096 241.999 91.7363 240.31 91.7363 240.31Z" fill="#F75C03"/>
<path d="M97.2089 242.095C97.2089 242.17 94.1322 242.235 90.3427 242.235C86.5532 242.235 83.4766 242.17 83.4766 242.095C83.4766 242.02 86.5532 241.956 90.3427 241.956C94.1322 241.956 97.2089 242.02 97.2089 242.095Z" fill="#263238"/>
<path d="M91.8813 241.248C91.8117 241.211 91.8813 240.97 92.0475 240.712C92.2137 240.455 92.4388 240.348 92.4924 240.401C92.546 240.455 92.4334 240.659 92.2726 240.878C92.1118 241.098 91.951 241.286 91.8813 241.248Z" fill="#263238"/>
<path d="M92.4063 241.548C92.3312 241.548 92.3688 241.248 92.5296 240.964C92.6904 240.68 92.9048 240.509 92.9637 240.551C93.0227 240.594 92.9262 240.836 92.7761 241.087C92.626 241.339 92.476 241.575 92.4063 241.548Z" fill="#263238"/>
<path d="M85.9533 242.074C85.9211 242.074 85.7978 241.977 85.6209 241.774C85.405 241.512 85.1645 241.271 84.9027 241.055C84.6452 240.85 84.3385 240.715 84.0129 240.664C83.761 240.632 83.6002 240.664 83.5841 240.632C83.5681 240.6 83.7235 240.487 84.0183 240.466C84.4074 240.457 84.7869 240.587 85.0903 240.83C85.3746 241.062 85.6143 241.343 85.7978 241.661C85.9211 241.897 85.9854 242.052 85.9533 242.074Z" fill="#263238"/>
<path d="M91.908 240.385C91.9455 240.45 91.8062 240.61 91.5703 240.696C91.3345 240.782 91.1255 240.75 91.1147 240.696C91.104 240.643 91.2702 240.53 91.4739 240.455C91.6775 240.38 91.8651 240.321 91.908 240.385Z" fill="#263238"/>
<path d="M91.7793 239.94C91.7793 240.021 91.5649 240.085 91.2862 240.091C91.0075 240.096 90.7877 240.032 90.7931 239.957C90.7984 239.882 91.0182 239.812 91.2862 239.806C91.5542 239.801 91.7686 239.865 91.7793 239.94Z" fill="#263238"/>
<path d="M111.971 240.31V235.727L103.754 235.668L103.684 242.529L104.193 242.567C106.461 242.711 115.733 242.996 117.25 242.524C118.944 241.999 111.971 240.31 111.971 240.31Z" fill="#F75C03"/>
<path d="M117.443 242.106C117.443 242.181 114.372 242.245 110.577 242.245C106.782 242.245 103.716 242.181 103.716 242.106C103.716 242.031 106.788 241.967 110.577 241.967C114.367 241.967 117.443 242.031 117.443 242.106Z" fill="#263238"/>
<path d="M112.115 241.248C112.051 241.211 112.115 240.97 112.282 240.712C112.448 240.455 112.673 240.348 112.726 240.401C112.78 240.455 112.667 240.659 112.507 240.878C112.346 241.098 112.185 241.286 112.115 241.248Z" fill="#263238"/>
<path d="M112.641 241.548C112.571 241.548 112.603 241.248 112.769 240.964C112.935 240.68 113.144 240.509 113.203 240.551C113.262 240.594 113.16 240.836 113.01 241.087C112.86 241.339 112.716 241.575 112.641 241.548Z" fill="#263238"/>
<path d="M106.187 242.074C106.155 242.074 106.037 241.977 105.855 241.774C105.639 241.512 105.398 241.271 105.137 241.055C104.879 240.85 104.572 240.715 104.247 240.664C104 240.632 103.834 240.664 103.818 240.632C103.802 240.6 103.957 240.487 104.252 240.466C104.641 240.457 105.021 240.587 105.324 240.83C105.61 241.06 105.85 241.342 106.032 241.661C106.155 241.897 106.219 242.052 106.187 242.074Z" fill="#263238"/>
<path d="M112.142 240.385C112.179 240.45 112.04 240.61 111.804 240.696C111.568 240.782 111.359 240.75 111.349 240.696C111.338 240.643 111.504 240.53 111.708 240.455C111.911 240.38 112.099 240.321 112.142 240.385Z" fill="#263238"/>
<path d="M112.024 239.94C112.024 240.021 111.81 240.085 111.531 240.091C111.252 240.096 111.038 240.032 111.043 239.957C111.048 239.882 111.263 239.812 111.531 239.806C111.799 239.801 112.024 239.865 112.024 239.94Z" fill="#263238"/>
<path d="M142.244 104.22C142.029 104 141.499 104.107 141.499 104.107C141.552 103.799 141.552 103.483 141.499 103.175C141.402 102.875 140.727 102.934 140.727 102.934C140.696 102.681 140.696 102.425 140.727 102.172C140.732 102.116 140.72 102.06 140.692 102.011C140.665 101.962 140.622 101.923 140.571 101.899C140.252 101.769 139.909 101.707 139.564 101.717C139.151 101.422 140.823 99.0797 141.445 98.3293C142.067 97.5789 141.954 96.9946 141.402 96.9946C141.022 96.9946 139.071 99.2458 138.47 100.002C137.87 100.757 136.278 102.858 136.225 101.181C136.171 99.5031 135.496 98.2381 135.072 98.0237C134.649 97.8093 134.198 98.3132 134.429 98.7795C134.631 99.3093 134.758 99.8651 134.804 100.43C134.862 100.881 134.842 101.338 134.745 101.781C134.567 102.606 134.326 103.416 134.022 104.204H133.979C133.979 104.204 122.283 115.422 121.436 116.221C120.681 116.939 105.48 115.369 102.43 115.047C101.393 114.895 100.347 114.824 99.2995 114.833C97.9755 114.892 97.7397 115.079 96.4211 115.095C93.0912 115.132 89.769 115.424 86.4837 115.969C84.9961 116.222 83.6066 116.879 82.4666 117.867C81.3267 118.856 80.4802 120.139 80.0195 121.576C76.9483 131.17 69.991 153.88 68.7635 166.637C67.836 168.319 66.9987 170.049 66.2551 171.82C65.3921 174.168 65.6011 174.248 65.8906 174.302C66.6731 174.447 67.5629 170.234 67.8952 171.252C68.2275 172.27 66.2068 176.274 67.0269 176.392C68.0989 176.542 68.9511 172.104 69.053 171.751C69.1548 171.397 69.6855 171.509 69.589 171.842C69.4335 172.313 67.9274 177.314 68.9779 177.475C69.5568 177.561 69.6211 176.505 69.6211 176.505C69.6211 176.505 70.6931 171.718 71.1809 171.815C71.6687 171.911 71.1487 174.736 70.9022 175.679C70.6556 176.623 70.9987 177.1 71.5025 176.869C71.8455 176.709 72.6656 173.841 72.8908 172.908C73.1159 171.976 73.6787 169.392 74.4344 170.888C75.1902 172.383 76.3372 173.251 76.8089 173.273C76.9152 173.261 77.0154 173.217 77.0966 173.147C77.1778 173.077 77.2362 172.985 77.2645 172.882C77.2927 172.779 77.2895 172.669 77.2551 172.568C77.2207 172.467 77.1568 172.378 77.0715 172.313C76.6658 171.917 76.3176 171.466 76.0371 170.973C75.787 170.59 75.6057 170.165 75.5011 169.719C75.2851 168.83 75.1594 167.921 75.1259 167.007L75.0401 166.471C76.2407 160.527 79.6979 143.08 84.6881 131.936L86.7356 136.149L87.6254 139.269L82.1689 152.739L105.442 152.433L101.969 139.065L106.187 125.129C110.748 125.231 122.46 125.403 124.411 124.518C126.866 123.446 139.564 107.409 139.564 107.409C140.391 106.766 141.184 106.079 141.938 105.351C141.938 105.351 142.71 104.702 142.244 104.22Z" fill="#FFBE9D"/>
<path d="M81.1452 142.785C81.8205 140.48 85.2884 129.085 85.2884 129.085C85.2884 129.085 86.9929 138.374 86.5427 139.494C86.1285 140.453 85.6392 141.378 85.0794 142.26C81.1452 148.247 81.6597 151.243 81.6597 151.243L105.431 150.52C105.485 147.196 103.518 139.467 103.11 138.234C102.703 137.002 104.059 132.966 104.059 132.966C104.059 132.966 106.739 130.237 106.643 128.833C106.592 127.572 106.436 126.317 106.176 125.081L120.648 125.617L120.193 115.808L99.4067 113.729C98.6831 115.771 92.1385 114.768 92.1385 114.768C85.074 115.004 84.6345 116.301 81.6972 118.585C78.76 120.868 73.8984 140.464 73.8984 140.464L81.1452 142.785Z" fill="#F75C03"/>
<path d="M95.1993 140.464C94.7873 140.538 94.3677 140.559 93.9504 140.528C93.1732 140.528 92.1065 140.475 90.9327 140.357C89.7589 140.239 88.6976 140.073 87.9418 139.923C87.5251 139.869 87.1165 139.765 86.7251 139.612C87.1442 139.612 87.5623 139.652 87.974 139.73C88.7351 139.826 89.791 139.96 90.9595 140.078C92.128 140.196 93.1893 140.277 93.9557 140.33C94.3735 140.335 94.7899 140.38 95.1993 140.464Z" fill="#263238"/>
<path d="M96.8286 138.443C96.4165 138.645 95.9807 138.795 95.5315 138.888C93.393 139.45 91.1868 139.712 88.9762 139.666C88.5188 139.68 88.0613 139.637 87.6147 139.537C88.0662 139.48 88.5213 139.457 88.9762 139.467C89.8177 139.44 90.9755 139.381 92.2511 139.231C93.5268 139.081 94.6631 138.867 95.4671 138.695C95.9137 138.576 96.3689 138.492 96.8286 138.443Z" fill="#263238"/>
<path d="M104.825 129.428C104.815 129.837 104.759 130.243 104.659 130.639C104.52 131.384 104.306 132.403 104.032 133.518C103.759 134.633 103.496 135.662 103.26 136.358C103.166 136.757 103.025 137.144 102.842 137.511C102.872 137.103 102.948 136.701 103.067 136.31C103.271 135.474 103.502 134.509 103.759 133.453C104.016 132.397 104.263 131.433 104.466 130.596C104.539 130.194 104.659 129.802 104.825 129.428Z" fill="#263238"/>
<path d="M81.3971 141.418C80.1571 141.227 78.9333 140.942 77.7362 140.566C76.513 140.28 75.3127 139.904 74.145 139.44C75.3844 139.635 76.608 139.92 77.8059 140.293C79.0294 140.578 80.2298 140.954 81.3971 141.418Z" fill="#263238"/>
<path d="M106.434 124.963C106.232 124.998 106.025 124.998 105.823 124.963C105.263 124.906 104.713 124.774 104.188 124.572C103.311 124.242 102.513 123.733 101.845 123.077C101.176 122.42 100.653 121.631 100.307 120.761C99.9257 119.803 99.7627 118.772 99.8303 117.743C99.8542 116.894 100.108 116.068 100.565 115.353C100.886 114.87 101.366 114.516 101.921 114.35C102.069 114.309 102.222 114.289 102.376 114.291C102.484 114.291 102.537 114.291 102.537 114.291C102.537 114.291 102.312 114.291 101.953 114.436C101.444 114.624 101.012 114.977 100.725 115.438C99.9965 116.585 99.7928 118.681 100.57 120.637C100.932 121.56 101.498 122.388 102.226 123.06C102.823 123.61 103.51 124.052 104.258 124.368C104.959 124.645 105.689 124.845 106.434 124.963Z" fill="#263238"/>
<path d="M118.928 125.424C118.794 123.78 118.751 122.131 118.799 120.482C118.757 118.835 118.807 117.187 118.949 115.546C119.083 117.187 119.126 118.835 119.078 120.482C119.123 122.131 119.073 123.781 118.928 125.424Z" fill="#263238"/>
<path d="M99.2672 114.329C99.3261 113.134 99.4494 111.783 99.4494 111.783C99.4494 111.783 102.408 111.456 102.585 108.401C102.762 105.345 102.585 98.2971 102.585 98.2971L97.225 95.5527L91.2754 100.232L92.192 115.508L97.6484 115.856C98.0655 115.868 98.4702 115.714 98.7736 115.427C99.0771 115.141 99.2545 114.746 99.2672 114.329Z" fill="#FFBE9D"/>
<path d="M99.7979 105.983C99.7979 105.983 99.7979 106.042 99.7497 106.112C99.7098 106.162 99.6582 106.203 99.5994 106.229C99.5405 106.255 99.4762 106.266 99.412 106.262C99.0689 106.262 98.7366 105.865 98.6187 105.404C98.5626 105.181 98.5626 104.947 98.6187 104.724C98.6297 104.626 98.6649 104.533 98.721 104.452C98.7772 104.372 98.8526 104.307 98.9403 104.263C99.0124 104.233 99.0933 104.233 99.1654 104.263C99.2189 104.289 99.2622 104.333 99.2887 104.386C99.3262 104.477 99.2887 104.536 99.2887 104.531C99.2887 104.525 99.2887 104.477 99.2351 104.423C99.2071 104.385 99.1659 104.358 99.1194 104.349C99.0729 104.339 99.0244 104.346 98.9832 104.37C98.9174 104.41 98.8628 104.465 98.8244 104.532C98.786 104.598 98.765 104.674 98.7634 104.75C98.7183 104.95 98.7183 105.157 98.7634 105.356C98.8706 105.774 99.1601 106.112 99.4173 106.144C99.4677 106.151 99.5189 106.147 99.5677 106.133C99.6166 106.12 99.6621 106.096 99.7014 106.064C99.7657 106.021 99.7872 105.978 99.7979 105.983Z" fill="#EB996E"/>
<path d="M104.424 96.6462C104.011 95.2419 102.516 94.5451 101.154 94.1592C99.0798 93.5696 96.8393 93.3123 94.8132 94.0573C92.7871 94.8024 90.3537 96.1102 90.3537 98.3453C89.1584 98.2488 88.4723 99.294 88.0006 100.591C87.6991 101.381 87.5184 102.213 87.4646 103.057C87.3145 105.983 86.4945 110.025 84.597 112.169C83.525 113.364 82.0403 114.189 81.4293 115.68C80.8933 116.971 81.172 118.504 80.6735 119.812C80.2286 120.965 79.2477 121.785 78.5295 122.787C77.7978 123.924 77.3671 125.228 77.2781 126.578C77.189 127.927 77.4444 129.277 78.0203 130.5C78.6003 131.692 79.417 132.753 80.4205 133.62C81.424 134.486 82.5934 135.139 83.8574 135.538C86.361 136.3 89.0309 136.326 91.549 135.613C93.4388 135.162 95.2017 134.287 96.7053 133.057C98.2438 131.8 99.3005 130.051 99.6962 128.104C100.077 125.917 99.4657 123.693 99.0101 121.517C97.5843 114.64 97.9917 114.281 99.7926 107.897C99.8355 107.784 99.857 107.666 99.8891 107.554C99.9213 107.441 99.9374 107.388 99.9588 107.302C100.01 107.05 100.037 106.793 100.039 106.535C99.7761 106.633 99.4906 106.654 99.2162 106.595C98.9418 106.536 98.6899 106.4 98.4902 106.203C98.2899 105.993 98.1503 105.732 98.0861 105.449C98.022 105.166 98.0356 104.871 98.1257 104.595C98.2521 104.293 98.4406 104.021 98.6788 103.797C98.917 103.573 99.1997 103.401 99.5086 103.293C100.104 103.046 100.741 102.917 101.326 102.644C102.564 102.054 103.421 100.832 104.006 99.5513C104.486 98.6634 104.634 97.6335 104.424 96.6462Z" fill="#263238"/>
<path d="M100.013 106.128C100.126 106.295 100.219 106.475 100.291 106.664C100.452 107.002 100.666 107.479 100.902 108.031L100.945 108.133H100.833L100.297 108.181C99.9268 108.181 99.6159 108.251 99.2514 108.245C99.2197 108.238 99.1903 108.223 99.1659 108.202C99.1415 108.18 99.123 108.153 99.1121 108.122C99.0961 108.073 99.0961 108.021 99.1121 107.972C99.1245 107.9 99.1406 107.828 99.1603 107.757L99.2568 107.377C99.3053 107.123 99.3807 106.875 99.4819 106.637C99.4719 106.896 99.4342 107.153 99.3693 107.404L99.2943 107.784C99.2675 107.913 99.2193 108.111 99.2943 108.095C99.5623 108.095 99.9429 108.036 100.297 108.015L100.833 107.967L100.763 108.084C100.532 107.548 100.34 107.045 100.227 106.696C100.128 106.518 100.056 106.327 100.013 106.128Z" fill="#F75C03"/>
<path d="M81.6595 151.243L105.431 150.52L115.776 190.902L113.873 237.223H101.304L102.842 191.888L93.6499 163.775L95.0649 239.018L82.3617 239.206L81.0271 168.481C80.9681 166.514 80.3249 162.081 80.5661 160.13L81.6595 151.243Z" fill="#263238"/>
<path d="M96.8126 164.348C96.4235 164.373 96.0328 164.349 95.6494 164.279C94.9312 164.193 93.9503 164.043 92.873 163.828C91.7956 163.614 90.8308 163.367 90.134 163.169C89.7615 163.087 89.4012 162.958 89.062 162.783C89.062 162.703 90.8094 163.121 92.9534 163.555C95.0974 163.989 96.8233 164.268 96.8126 164.348Z" fill="#455A64"/>
<path d="M113.745 234.682C113.745 234.757 110.899 234.822 107.388 234.822C103.877 234.822 101.025 234.757 101.025 234.682C101.025 234.607 103.872 234.543 107.388 234.543C110.904 234.543 113.745 234.602 113.745 234.682Z" fill="#455A64"/>
<path d="M94.9525 237.062C94.9525 237.142 92.1867 237.201 88.7778 237.201C85.3688 237.201 82.6084 237.142 82.6084 237.062C82.6084 236.982 85.3742 236.923 88.7778 236.923C92.1814 236.923 94.9525 236.987 94.9525 237.062Z" fill="#455A64"/>
<path d="M93.3122 236.869C93.2371 236.869 92.9048 220.43 92.5671 200.153C92.2294 179.876 92.0311 163.426 92.1008 163.426C92.1705 163.426 92.5135 179.86 92.8458 200.148C93.1782 220.435 93.3926 236.869 93.3122 236.869Z" fill="#455A64"/>
<path d="M112.056 234.682C112.051 234.609 112.051 234.536 112.056 234.463V233.819C112.056 233.24 112.099 232.41 112.132 231.354C112.207 229.21 112.314 226.096 112.448 222.279C112.737 214.604 113.145 204.023 113.589 192.344C113.589 192.231 113.589 192.124 113.589 192.027V192.065C110.775 180.809 108.229 170.593 106.38 163.201L104.236 154.459C103.99 153.435 103.802 152.637 103.668 152.079C103.604 151.817 103.561 151.613 103.523 151.458C103.502 151.388 103.49 151.316 103.486 151.243C103.514 151.311 103.535 151.381 103.55 151.452C103.593 151.602 103.647 151.806 103.722 152.063C103.866 152.599 104.075 153.414 104.343 154.432C104.879 156.501 105.635 159.481 106.579 163.153C108.444 170.539 111.017 180.729 113.868 192.001V192.038C113.868 192.135 113.868 192.247 113.868 192.354C113.391 204.034 112.957 214.609 112.641 222.285C112.475 226.106 112.335 229.199 112.239 231.354C112.185 232.426 112.142 233.24 112.115 233.819C112.115 234.093 112.083 234.307 112.078 234.463C112.079 234.536 112.072 234.61 112.056 234.682Z" fill="#455A64"/>
<path d="M107.956 191.084C107.053 191.381 106.123 191.587 105.179 191.7C104.022 191.899 103.035 192.038 102.591 192.06V191.952C102.735 191.995 102.81 192.022 102.81 192.043C102.81 192.065 102.719 192.043 102.569 192.043H102.248L102.569 191.947C102.987 191.824 103.973 191.62 105.131 191.411C106.06 191.209 107.006 191.1 107.956 191.084Z" fill="#455A64"/>
<path d="M107.736 192.622C106.9 192.661 106.062 192.623 105.233 192.51C104.396 192.493 103.562 192.401 102.741 192.236C104.416 192.1 106.102 192.23 107.736 192.622Z" fill="#455A64"/>
<path opacity="0.2" d="M81.5581 152.095C81.8396 152.457 82.1942 152.755 82.5988 152.97C83.0033 153.185 83.4487 153.313 83.9058 153.344C84.8632 153.458 85.8316 153.44 86.7841 153.291C92.9213 152.61 99.423 151.983 105.432 150.52C97.6542 150.954 89.4373 150.809 81.6599 151.243L81.5795 151.908" fill="black"/>
<g opacity="0.2">
<path d="M89.5713 163.057L93.9558 180.069L93.6502 163.775L89.5713 163.057Z" fill="black"/>
</g>
</svg>
